<svg width="20" height="20" viewBox="0 0 20 20" fill="none" xmlns="http://www.w3.org/2000/svg">
<path d="M0.999927 12.0001H2.99993V19.0001C2.99993 19.5531 3.44793 20.0001 3.99993 20.0001H15.9999C16.5529 20.0001 16.9999 19.5531 16.9999 19.0001V12.0001H18.9999C19.3949 12.0001 19.7529 11.7681 19.9129 11.4071C20.0739 11.0461 20.0079 10.6241 19.7429 10.3311L10.7429 0.331148C10.3639 -0.0908515 9.63593 -0.0908515 9.25693 0.331148L0.256927 10.3311C-0.00707331 10.6241 -0.0740734 11.0461 0.0869266 11.4071C0.246927 11.7681 0.604927 12.0001 0.999927 12.0001ZM6.65293 9.64115C7.52793 8.78615 8.90793 8.78615 9.77793 9.64115L10.0019 9.86115L10.2249 9.64115C11.0959 8.78615 12.4759 8.78615 13.3509 9.64115C14.2219 10.5011 14.2219 11.8561 13.3509 12.7111L10.0019 16.0001L6.65293 12.7111C5.78193 11.8561 5.78193 10.5011 6.65293 9.64115Z" fill="#61C7B5"/>
</svg>
