<svg width="16" height="20" viewBox="0 0 16 20" fill="none" xmlns="http://www.w3.org/2000/svg">
<path d="M6.5 11.0001H5.5C4.67 11.0001 4 10.3301 4 9.50007C4 8.67007 4.67 8.00007 5.5 8.00007H6.5V7.00007C6.5 6.17007 7.17 5.50007 8 5.50007C8.83 5.50007 9.5 6.17007 9.5 7.00007V8.00007H10.5C11.33 8.00007 12 8.67007 12 9.50007C12 10.3301 11.33 11.0001 10.5 11.0001H9.5V12.0001C9.5 12.8301 8.83 13.5001 8 13.5001C7.17 13.5001 6.5 12.8301 6.5 12.0001V11.0001ZM7.3 0.260066L1.3 2.51007C0.52 2.81007 0 3.55007 0 4.39007V9.09007C0 14.1401 3.41 18.8501 8 20.0001C12.59 18.8501 16 14.1401 16 9.09007V4.39007C16 3.56007 15.48 2.81007 14.7 2.52007L8.7 0.270066C8.25 0.0900658 7.75 0.0900659 7.3 0.260066Z" fill="#8F90A6"/>
</svg>
