<svg width="80" height="80" viewBox="0 0 80 80" fill="none" xmlns="http://www.w3.org/2000/svg">
<g clip-path="url(#clip0_21_13805)">
<path fill-rule="evenodd" clip-rule="evenodd" d="M7.3335 70.7454C6.22893 70.7454 5.3335 69.85 5.3335 68.7454V4.66699C5.3335 3.56242 6.22893 2.66699 7.3335 2.66699H37.1737C37.1771 2.66699 37.1798 2.66958 37.18 2.6729C37.18 2.66964 37.1827 2.66699 37.1859 2.66699H67.0262C68.1307 2.66699 69.0262 3.56242 69.0262 4.66699V10.6919C69.0262 11.1811 68.8468 11.6534 68.5221 12.0193L37.1839 47.3355C37.1826 47.337 37.18 47.3361 37.18 47.334C37.1798 47.3378 37.1783 47.3415 37.1757 47.3443L17.0072 70.0729C16.6276 70.5006 16.0831 70.7454 15.5113 70.7454H7.3335Z" fill="#C7C9D9"/>
<path fill-rule="evenodd" clip-rule="evenodd" d="M18.4105 77.3335C17.306 77.3335 16.4105 76.4381 16.4105 75.3335V13.4512C16.4105 12.3466 17.306 11.4512 18.4105 11.4512H46.8675C46.8701 11.4512 46.8722 11.4531 46.8724 11.4557C46.8724 11.4532 46.8744 11.4512 46.8769 11.4512H75.334C76.4385 11.4512 77.334 12.3466 77.334 13.4512V61.208C77.334 62.1716 76.6468 62.9983 75.6993 63.1743L64.2107 65.3091C63.4984 65.4415 62.9134 65.9486 62.6814 66.6349L59.5242 75.974C59.2495 76.7866 58.4873 77.3335 57.6295 77.3335H46.8769C46.8744 77.3335 46.8724 77.3315 46.8724 77.329C46.8722 77.3316 46.8701 77.3335 46.8675 77.3335H18.4105Z" fill="white"/>
<path d="M59.0653 77.333C61.287 75.5743 75.1082 64.6325 77.3347 62.8701C72.3842 62.8701 61.982 62.8701 59.0653 62.8701V77.333Z" fill="#C7C9D9"/>
<path fill-rule="evenodd" clip-rule="evenodd" d="M46.8732 24.6275H66.2571V20.2354H46.8725V20.2354H27.4885V24.6276H46.8731L46.8732 24.6275Z" fill="#C7C9D9"/>
<path fill-rule="evenodd" clip-rule="evenodd" d="M46.8725 33.4117H27.4885V29.0195H46.8731L46.8732 29.0196H66.2571V33.4118H46.8725V33.4117Z" fill="#C7C9D9"/>
<path fill-rule="evenodd" clip-rule="evenodd" d="M46.8732 42.1959H66.2571V37.8037H46.8725V37.8038H27.4885V42.1959H46.8731L46.8732 42.1959Z" fill="#C7C9D9"/>
<path fill-rule="evenodd" clip-rule="evenodd" d="M46.8731 46.5889H46.8725H27.4885V50.981L46.8725 50.981H66.2571V46.5889H46.8731Z" fill="#C7C9D9"/>
<path d="M46.8731 59.7652C41.6526 59.7652 30.5297 59.7652 27.4885 59.7652C27.4885 58.2291 27.4885 56.9091 27.4885 55.373H46.8731V59.7652Z" fill="#C7C9D9"/>
</g>
<defs>
<clipPath id="clip0_21_13805">
<rect width="74.6667" height="74.6667" fill="white" transform="translate(2.66687 2.66699)"/>
</clipPath>
</defs>
</svg>
