<svg width="626" height="213" viewBox="0 0 626 213" fill="none" xmlns="http://www.w3.org/2000/svg">
<path d="M287.048 91.7534C286.65 90.8234 286.119 90.1592 285.455 89.6278C284.658 89.0964 283.861 88.8307 283.065 88.8307C282.135 88.6978 281.339 88.9635 280.542 89.4949C279.745 90.0263 279.081 90.8234 278.816 91.7534L260.625 135.328C260.492 135.86 260.36 136.258 260.36 136.657C260.36 137.72 260.625 138.65 261.289 139.314C261.953 139.978 262.882 140.377 264.21 140.377C265.007 140.377 265.804 140.111 266.467 139.579C267.131 139.048 267.662 138.384 268.061 137.454L271.779 128.553H293.554L297.272 137.321C297.67 138.251 298.201 138.915 298.865 139.447C299.529 139.978 300.326 140.244 301.255 140.244C302.318 140.244 303.247 139.845 304.044 139.048C304.84 138.251 305.371 137.188 305.371 135.86C305.371 135.328 305.239 134.797 304.973 134.133L287.048 91.7534ZM275.364 120.316L282.666 103.311L289.969 120.316H275.364Z" fill="#128EBF"/>
<path d="M315.994 86.3067C314.666 86.3067 313.736 86.7053 312.807 87.6352C312.01 88.4323 311.479 89.4951 311.479 90.8236V135.86C311.479 137.188 311.878 138.118 312.674 139.048C313.471 139.845 314.533 140.377 315.728 140.377C316.923 140.377 317.985 139.978 318.915 139.048C319.712 138.251 320.243 137.188 320.243 135.86V90.6908C320.243 89.3623 319.844 88.4323 319.048 87.5024C318.251 86.7052 317.321 86.3067 315.994 86.3067Z" fill="#128EBF"/>
<path d="M347.993 109.954C349.188 109.954 350.118 109.555 350.914 108.891C351.711 108.094 352.109 107.164 352.109 106.101C352.109 104.906 351.711 103.976 350.914 103.179C350.118 102.382 349.188 101.983 347.993 101.983H342.815V97.3332C342.815 96.1376 342.416 95.0748 341.62 94.1448C340.823 93.3477 339.761 92.8163 338.566 92.8163C337.238 92.8163 336.309 93.2149 335.379 94.1448C334.583 94.9419 334.051 96.0047 334.051 97.3332V101.983H330.732C329.537 101.983 328.608 102.382 327.811 103.046C327.014 103.843 326.616 104.773 326.616 105.836C326.616 107.031 327.014 107.961 327.811 108.758C328.608 109.555 329.537 109.954 330.732 109.954H334.051V130.014C334.051 132.406 334.45 134.266 335.114 135.594C335.778 136.923 336.707 137.985 337.902 138.65C338.964 139.314 340.159 139.712 341.354 139.845C342.549 139.978 343.744 140.111 344.807 140.111C346.533 140.111 348.126 139.712 349.587 138.783C351.047 137.853 351.844 136.79 351.844 135.461C351.844 134.398 351.578 133.468 351.047 132.804C350.516 132.14 349.852 131.874 349.188 131.874C348.524 131.874 347.993 132.007 347.462 132.14C346.931 132.406 346.4 132.406 345.869 132.406C345.338 132.406 344.807 132.273 344.408 132.14C344.01 132.007 343.611 131.609 343.346 131.21C343.08 130.811 342.948 130.28 342.948 129.483V109.954H347.993Z" fill="#128EBF"/>
<path d="M389.022 106.234C387.296 104.507 385.304 103.045 383.18 101.983C380.923 100.92 378.665 100.388 376.143 100.388C372.956 100.388 369.902 101.185 366.981 102.912C364.06 104.64 361.802 106.898 360.076 109.954C358.35 113.009 357.421 116.729 357.421 121.113C357.421 124.833 358.217 128.154 359.811 131.21C361.404 134.132 363.794 136.524 366.848 138.251C369.902 139.978 373.487 140.775 377.603 140.775C379.993 140.775 382.383 140.376 384.64 139.579C386.898 138.782 388.756 137.852 389.951 136.789C391.279 135.726 391.943 134.531 391.943 133.202C391.943 132.272 391.545 131.342 390.881 130.678C390.217 130.014 389.288 129.615 388.225 129.615C387.429 129.615 386.632 129.881 385.703 130.28C385.171 130.545 384.64 130.944 383.976 131.342C383.313 131.741 382.516 132.14 381.454 132.405C380.391 132.671 378.931 132.804 377.205 132.804C375.213 132.804 373.487 132.272 371.761 131.342C370.035 130.412 368.574 128.951 367.512 127.224C366.848 126.161 366.45 124.966 366.184 123.637H390.217C391.412 123.637 392.341 123.239 393.271 122.574C394.2 121.91 394.599 120.847 394.599 119.784C394.599 117.127 394.068 114.736 393.138 112.345C392.076 110.086 390.748 107.961 389.022 106.234ZM368.84 111.016C369.769 110.086 370.831 109.422 372.159 109.024C373.354 108.625 374.815 108.492 376.275 108.492C377.736 108.492 379.196 108.758 380.524 109.422C381.852 110.086 382.914 111.016 383.844 112.079C384.773 113.142 385.304 114.47 385.304 115.799V116.33H366.184C366.317 115.799 366.45 115.135 366.582 114.603C367.246 113.142 367.91 111.946 368.84 111.016Z" fill="#128EBF"/>
<path d="M436.822 101.718C436.025 100.92 434.963 100.522 433.635 100.522C432.308 100.522 431.378 100.92 430.449 101.85C429.652 102.648 429.254 103.71 429.254 105.039C428.855 104.64 428.324 104.242 427.793 103.843C426.465 102.913 425.005 102.116 423.279 101.452C421.553 100.788 419.561 100.522 417.569 100.522C414.383 100.522 411.329 101.319 408.673 103.046C406.018 104.773 403.893 107.164 402.3 110.22C400.706 113.276 399.91 116.73 399.91 120.715C399.91 124.701 400.706 128.155 402.3 131.21C403.893 134.266 406.018 136.657 408.806 138.384C411.461 140.111 414.515 140.908 417.968 140.908C419.827 140.908 421.553 140.643 423.146 139.978C424.739 139.314 426.067 138.65 427.262 137.72C428.192 137.056 428.855 136.391 429.387 135.727C429.387 136.923 429.785 137.986 430.582 138.783C431.378 139.58 432.44 140.111 433.768 140.111C435.096 140.111 436.025 139.713 436.955 138.783C437.752 137.986 438.15 136.923 438.15 135.594V104.906C438.017 103.577 437.619 102.515 436.822 101.718ZM428.324 126.959C427.395 128.819 426.2 130.28 424.607 131.343C423.013 132.406 421.154 132.937 419.03 132.937C416.905 132.937 415.046 132.406 413.453 131.343C411.86 130.28 410.665 128.819 409.735 126.959C408.806 125.099 408.408 123.106 408.408 120.715C408.408 118.324 408.806 116.331 409.735 114.471C410.665 112.611 411.86 111.15 413.453 110.087C415.046 109.024 416.905 108.493 419.03 108.493C421.154 108.493 423.013 109.024 424.607 110.087C426.2 111.15 427.395 112.611 428.324 114.471C429.254 116.331 429.652 118.457 429.652 120.715C429.652 122.974 429.254 125.099 428.324 126.959Z" fill="#128EBF"/>
<path d="M481.172 130.015C480.109 129.882 479.18 130.015 478.118 130.546C476.923 131.211 475.595 131.609 474.267 131.875C472.939 132.141 471.612 132.274 470.284 132.274C467.894 132.274 465.637 131.875 463.645 131.211C461.653 130.546 459.794 129.484 458.334 128.022C456.873 126.561 455.678 124.701 454.749 122.575C453.952 120.45 453.421 117.793 453.421 114.87C453.421 112.346 453.819 110.088 454.483 107.962C455.28 105.836 456.342 104.109 457.803 102.515C459.263 100.921 460.989 99.8581 463.114 98.9281C465.238 98.131 467.496 97.7325 470.151 97.7325C471.612 97.7325 472.939 97.8653 474.134 98.131C475.462 98.3967 476.657 98.7953 477.852 99.3267C478.914 99.8581 479.844 99.9909 480.906 99.8581C481.836 99.7252 482.765 99.3267 483.296 98.3967C484.226 97.3339 484.624 96.0054 484.358 94.6769C484.093 93.3484 483.429 92.2856 482.101 91.7542C480.242 90.8243 478.383 90.16 476.392 89.6286C474.4 89.0972 472.276 88.9644 470.151 88.9644C466.433 88.9644 462.848 89.6286 459.662 90.9571C456.475 92.2856 453.687 94.0127 451.297 96.404C448.907 98.6624 447.18 101.452 445.853 104.641C444.525 107.829 443.861 111.283 443.861 115.003C443.861 119.387 444.525 123.107 445.985 126.428C447.446 129.749 449.305 132.406 451.828 134.665C454.218 136.79 457.006 138.517 460.193 139.58C463.379 140.643 466.699 141.307 470.151 141.307C471.612 141.307 472.939 141.174 474.267 141.042C475.595 140.776 476.923 140.51 478.251 140.112C479.578 139.713 480.906 139.182 482.101 138.517C483.296 137.986 484.093 137.056 484.358 135.728C484.624 134.399 484.226 133.203 483.296 132.008C483.031 130.679 482.234 130.148 481.172 130.015Z" fill="#43BEAE"/>
<path d="M523.262 100.522C521.935 100.522 521.005 100.92 520.076 101.85C519.279 102.647 518.881 103.71 518.881 105.039C518.482 104.64 517.951 104.242 517.42 103.843C516.092 102.913 514.632 102.116 512.906 101.452C511.18 100.788 509.188 100.522 507.196 100.522C504.009 100.522 500.956 101.319 498.3 103.046C495.644 104.773 493.52 107.164 491.927 110.22C490.333 113.276 489.537 116.73 489.537 120.715C489.537 124.701 490.333 128.155 491.927 131.21C493.52 134.266 495.644 136.657 498.433 138.384C501.088 140.111 504.142 140.908 507.595 140.908C509.453 140.908 511.18 140.643 512.773 139.978C514.366 139.314 515.694 138.65 516.889 137.72C517.818 137.056 518.482 136.391 519.013 135.727C519.013 136.923 519.412 137.986 520.208 138.783C521.005 139.58 522.067 140.111 523.395 140.111C524.59 140.111 525.652 139.713 526.582 138.783C527.378 137.986 527.777 136.923 527.777 135.594V104.906C527.777 103.577 527.378 102.515 526.582 101.718C525.52 100.92 524.457 100.522 523.262 100.522ZM517.951 126.959C517.022 128.819 515.827 130.28 514.233 131.343C512.64 132.406 510.781 132.937 508.657 132.937C506.532 132.937 504.673 132.406 503.08 131.343C501.487 130.28 500.292 128.819 499.362 126.959C498.433 125.099 498.034 123.106 498.034 120.715C498.034 118.324 498.433 116.331 499.362 114.471C500.292 112.611 501.487 111.15 503.08 110.087C504.673 109.024 506.532 108.493 508.657 108.493C510.781 108.493 512.64 109.024 514.233 110.087C515.827 111.15 517.022 112.611 517.951 114.471C518.881 116.331 519.279 118.457 519.279 120.715C519.279 122.974 518.748 125.099 517.951 126.959Z" fill="#43BEAE"/>
<path d="M560.971 101.718C559.909 100.92 558.714 100.522 557.254 100.522C556.059 100.522 554.864 100.655 553.669 100.92C552.474 101.186 551.279 101.718 550.216 102.249C549.154 102.913 548.225 103.577 547.295 104.507C546.631 105.172 546.233 105.836 545.702 106.633V105.57C545.702 104.375 545.304 103.312 544.507 102.382C543.71 101.585 542.648 101.053 541.32 101.053C539.992 101.053 539.063 101.452 538.134 102.382C537.337 103.179 536.939 104.242 536.939 105.57V135.594C536.939 136.923 537.337 137.853 538.134 138.783C538.93 139.58 539.992 140.111 541.32 140.111C542.515 140.111 543.577 139.713 544.507 138.783C545.304 137.986 545.702 136.923 545.702 135.594V118.324C545.702 116.597 545.967 115.003 546.366 113.807C546.764 112.478 547.428 111.416 548.225 110.619C549.021 109.689 549.818 109.157 550.748 108.626C551.677 108.227 552.474 107.962 553.403 107.962C554.333 107.962 555.262 108.094 555.926 108.493C556.723 108.891 557.519 109.024 558.449 109.024C559.378 109.024 560.308 108.626 561.104 107.962C561.901 107.297 562.299 106.102 562.299 104.507C562.432 103.577 562.034 102.515 560.971 101.718Z" fill="#43BEAE"/>
<path d="M600.672 122.576C601.602 121.911 602 120.849 602 119.786C602 117.129 601.469 114.738 600.54 112.346C599.477 109.955 598.149 107.962 596.556 106.235C594.83 104.508 592.838 103.047 590.714 101.984C588.457 100.921 586.199 100.39 583.677 100.39C580.49 100.39 577.436 101.187 574.515 102.914C571.594 104.508 569.337 106.899 567.61 109.955C565.884 113.011 564.955 116.73 564.955 121.114C564.955 124.834 565.752 128.155 567.345 131.211C568.938 134.134 571.328 136.525 574.382 138.252C577.436 139.979 581.021 140.776 585.137 140.776C587.527 140.776 589.917 140.378 592.174 139.581C594.432 138.783 596.291 137.854 597.486 136.791C598.813 135.728 599.477 134.532 599.477 133.204C599.477 132.274 599.079 131.344 598.415 130.68C597.751 130.015 596.822 129.617 595.759 129.617C594.963 129.617 594.166 129.882 593.237 130.281C592.706 130.547 592.174 130.945 591.511 131.344C590.847 131.742 590.05 132.141 588.988 132.407C587.926 132.672 586.465 132.805 584.739 132.805C582.747 132.805 581.021 132.274 579.295 131.344C577.569 130.414 576.108 128.953 575.046 127.225C574.382 126.163 573.984 124.967 573.718 123.639H597.618C598.681 123.771 599.743 123.373 600.672 122.576ZM576.241 111.018C577.17 110.088 578.233 109.424 579.56 109.025C580.755 108.626 582.216 108.494 583.677 108.494C585.137 108.494 586.598 108.759 587.926 109.424C589.253 110.088 590.316 111.018 591.245 112.081C592.174 113.143 592.573 114.472 592.706 115.8V116.332H573.585C573.718 115.8 573.851 115.136 573.984 114.605C574.515 113.143 575.312 111.948 576.241 111.018Z" fill="#43BEAE"/>
<path d="M159.181 189H107.397C61.1903 189 23.2156 151.403 24.0123 105.039C24.809 60.2681 61.4558 24 106.468 24C128.642 24 149.222 31.971 164.625 46.4517C178.301 59.3382 186.666 76.4758 188.525 95.2077C188.923 99.5918 185.471 103.444 181.089 103.444C177.239 103.444 174.052 100.655 173.654 96.8019C172.193 81.657 165.421 67.8406 154.401 57.3454C141.787 45.5217 124.791 39.0121 106.468 39.0121C70.2192 39.0121 40.4768 67.7077 39.0163 103.71C37.2901 142.237 68.7586 174.121 107.264 174.121H159.048C163.164 174.121 166.484 177.442 166.484 181.56C166.616 185.679 163.297 189 159.181 189Z" fill="#43BEAE"/>
<path d="M90.5357 106.5C90.5357 110.884 86.9507 114.604 82.4363 114.604C78.0546 114.604 74.3368 111.017 74.3368 106.5C74.3368 102.116 77.9218 98.5291 82.4363 98.5291C86.9507 98.5291 90.5357 102.116 90.5357 106.5Z" fill="#128EBF"/>
<path d="M114.038 106.5C114.038 110.884 110.453 114.604 105.939 114.604C101.557 114.604 97.8394 111.017 97.8394 106.5C97.8394 102.116 101.424 98.5291 105.939 98.5291C110.453 98.5291 114.038 102.116 114.038 106.5Z" fill="#128EBF"/>
<path d="M138.603 106.5C138.603 110.884 135.018 114.604 130.503 114.604C126.122 114.604 122.404 111.017 122.404 106.5C122.404 102.116 125.989 98.5291 130.503 98.5291C135.018 98.5291 138.603 102.116 138.603 106.5Z" fill="#128EBF"/>
<path d="M212.958 141.572H189.324V117.925C189.324 113.673 185.871 110.086 181.49 110.086C177.241 110.086 173.656 113.54 173.656 117.925V141.572H150.021C145.772 141.572 142.187 145.026 142.187 149.41C142.187 153.794 145.64 157.248 150.021 157.248H173.656V180.896C173.656 185.147 177.108 188.734 181.49 188.734C185.739 188.734 189.324 185.28 189.324 180.896V157.248H212.958C217.207 157.248 220.792 153.794 220.792 149.41C220.792 145.026 217.207 141.572 212.958 141.572Z" fill="#72CEED"/>
</svg>
