<svg width="160" height="30" viewBox="0 0 160 30" fill="none" xmlns="http://www.w3.org/2000/svg">
<path d="M0 15C0 6.71573 6.71573 0 15 0H145C153.284 0 160 6.71573 160 15V15C160 23.2843 153.284 30 145 30H15C6.71573 30 0 23.2843 0 15V15Z" fill="url(#paint0_linear_3_1486)"/>
<path d="M109.05 6.13495C107.476 6.13495 106.199 7.4041 106.199 8.96968C106.199 10.5353 107.476 11.8044 109.05 11.8044C110.625 11.8044 111.902 10.5353 111.902 8.96968C111.9 7.40501 110.625 6.13714 109.05 6.13495V6.13495Z" fill="white"/>
<path d="M114.909 10.3014C114.573 10.3075 114.245 10.3976 113.954 10.5634C113.594 10.7522 113.183 11.1775 113.073 11.3042C112.32 12.1421 110.607 13.4284 108.195 13.1361C105.852 12.8486 104.947 10.2074 104.808 9.74702C104.454 8.57219 104.024 8.00429 102.873 7.98518C102.376 7.98198 101.899 8.1766 101.547 8.52567C101.195 8.87473 100.998 9.34923 101 9.8434C101 10.4599 101.58 11.4125 101.916 12.1182C102.477 13.2954 102.966 14.428 103.35 16.9179C103.623 18.6877 103.679 19.7853 102.389 22.9458C102.159 23.4348 101.913 23.9175 101.914 24.424C101.914 24.9649 102.171 25.5009 102.52 25.7916C102.672 25.9191 103.241 26.3213 103.831 26.2839C105.474 26.1795 105.748 24.6176 106.093 23.6116C106.303 22.9975 106.444 22.0521 106.966 21.8593C107.544 21.6427 108.167 21.7486 108.425 22.7227C108.56 23.2293 108.871 24.5642 110.483 24.6184C111.517 24.6526 112.356 23.7845 112.356 22.757C112.356 22.5395 112.317 22.3238 112.241 22.1198C112.142 21.9186 112.027 21.7255 111.897 21.5423C111.737 21.3273 111.213 20.6495 110.917 20.166C109.385 17.6698 110.815 16.4495 112.199 15.5463C113.069 14.9784 114.635 14.4161 115.916 13.7271C116.853 13.2229 116.779 12.4185 116.779 12.162C116.778 11.1352 115.942 10.3027 114.909 10.3014Z" fill="white"/>
<path d="M115.81 16.949C115.738 16.7696 115.651 16.5966 115.549 16.4321C115.384 16.1782 115.125 16.0001 114.828 15.9374C114.53 15.8578 114.142 15.8936 113.644 16.0378C113.484 16.0832 113.346 16.1302 113.225 16.1772C112.756 16.362 112.492 16.5754 112.395 16.8622C112.315 17.0924 112.336 17.3552 112.45 17.6443C112.503 17.7746 112.566 17.9011 112.637 18.0227C112.948 18.5627 113.599 19.8634 113.815 20.405C114 20.8721 114.154 21.3511 114.275 21.8387C114.336 22.0948 114.413 22.3471 114.503 22.5945C114.629 22.9344 114.934 23.1773 115.295 23.2262C115.363 23.2366 115.431 23.2416 115.5 23.2413C115.815 23.2295 116.125 23.1596 116.415 23.035V23.035C116.624 22.9487 116.824 22.8442 117.014 22.7228C117.332 22.5283 117.532 22.1894 117.547 21.8188C117.569 21.5535 117.525 21.0175 116.888 19.4141L115.81 16.949Z" fill="white"/>
<path fill-rule="evenodd" clip-rule="evenodd" d="M126.493 12.2433C126.66 13.4715 126.805 14.7292 126.922 15.9789C127.021 17.035 127.114 18.1095 127.195 19.172C127.247 19.9064 127.199 20.4464 127.046 20.8255C126.873 21.253 126.52 21.583 126.08 21.7272C125.579 21.8957 125.064 22.0196 124.541 22.0976C124.049 22.182 123.55 22.2481 123.058 22.2935C122.841 22.3142 122.626 22.3285 122.412 22.3389H122.251C121.537 22.3349 120.835 22.1545 120.207 21.814C119.623 21.4978 119.192 20.996 118.925 20.3198C118.679 19.7001 118.512 18.9259 118.426 18.0195C118.312 16.8128 118.398 15.8809 118.687 15.1688C119.014 14.3508 119.482 13.8084 120.079 13.5543C120.533 13.3502 121.015 13.2159 121.509 13.1561C121.991 13.1043 122.478 13.1459 122.945 13.2788C123.09 13.3267 123.24 13.3601 123.392 13.3783C123.387 13.3592 123.387 13.3321 123.387 13.2987C123.357 12.988 123.256 12.4066 123.085 11.5703C123.057 11.4411 123.037 11.3105 123.024 11.1792C122.991 10.9254 123.023 10.6676 123.115 10.4289C123.278 10.0131 123.731 9.76222 124.457 9.69452C125.445 9.60054 126.102 10.0306 126.3 10.9068C126.363 11.1902 126.41 11.4768 126.441 11.7654C126.457 11.9375 126.474 12.0936 126.493 12.2433ZM123.799 19.2127C123.878 19.1531 123.928 19.0627 123.936 18.9642C123.942 18.8197 123.939 18.6749 123.925 18.5309L123.86 17.7638C123.828 17.278 123.805 16.9594 123.791 16.8001C123.779 16.6616 123.759 16.5239 123.732 16.3875C123.706 16.233 123.617 16.0961 123.486 16.0092C123.425 15.9678 123.283 15.9096 122.977 15.9096C122.894 15.9096 122.798 15.9136 122.689 15.9239C122.247 15.9646 121.926 16.096 121.732 16.3126C121.661 16.3939 121.499 16.687 121.586 17.6045C121.614 17.908 121.654 18.2075 121.703 18.4934C121.818 19.1227 121.995 19.2875 122.066 19.3282C122.252 19.4413 122.538 19.4755 122.913 19.4413C123.566 19.3799 123.756 19.2509 123.799 19.2127Z" fill="white"/>
<path fill-rule="evenodd" clip-rule="evenodd" d="M135.295 11.3608C135.566 11.0047 136.072 10.8877 136.788 11.0207C137.767 11.2023 138.279 11.7949 138.231 12.6869C138.213 12.9769 138.179 13.2657 138.129 13.5519C138.099 13.7192 138.072 13.8745 138.049 14.0235C137.871 15.2493 137.663 16.4982 137.432 17.7335C137.235 18.7817 137.026 19.8435 136.812 20.8789C136.661 21.5997 136.465 22.1063 136.214 22.4289C135.93 22.7925 135.499 23.0129 135.036 23.031C134.916 23.0398 134.786 23.0438 134.646 23.0438C134.248 23.0401 133.851 23.0148 133.456 22.9681C132.958 22.9116 132.461 22.8423 131.976 22.7523C131.761 22.713 131.55 22.6689 131.342 22.62C130.595 22.4368 129.911 22.0571 129.362 21.5209C128.885 21.0573 128.61 20.4568 128.538 19.7335C128.473 19.0709 128.525 18.2807 128.693 17.3855C128.917 16.1947 129.256 15.321 129.729 14.7148C130.269 14.0195 130.873 13.6212 131.514 13.5416C132.007 13.4685 132.507 13.4704 132.999 13.5472C133.477 13.6288 133.934 13.8017 134.346 14.0561C134.472 14.1413 134.606 14.2144 134.747 14.2744C134.752 14.2544 134.759 14.2282 134.765 14.1947C134.823 13.8841 134.885 13.301 134.951 12.4504C134.961 12.319 134.977 12.1882 135.001 12.0585C135.039 11.8053 135.141 11.5655 135.295 11.3608ZM133.844 19.3727L133.993 18.6176C134.097 18.1389 134.163 17.8211 134.191 17.6714C134.219 17.5216 134.239 17.3831 134.25 17.2588C134.267 17.1031 134.219 16.9474 134.117 16.8279C134.057 16.7562 133.879 16.6224 133.373 16.5284C132.938 16.448 132.593 16.483 132.347 16.6423C132.255 16.7013 132.019 16.9386 131.849 17.845C131.793 18.1437 131.748 18.4424 131.717 18.7323C131.654 19.3679 131.779 19.5742 131.835 19.6332C131.985 19.7893 132.248 19.9032 132.619 19.9725C133.264 20.0919 133.482 20.0195 133.533 19.994C133.626 19.9583 133.699 19.885 133.735 19.7925C133.781 19.6553 133.817 19.515 133.844 19.3727Z" fill="white"/>
<path fill-rule="evenodd" clip-rule="evenodd" d="M138.756 18.4477C139.539 16.5713 141.382 15.3488 143.426 15.3504C146.213 15.3556 148.471 17.6016 148.474 20.3723C148.474 22.4038 147.243 24.2352 145.354 25.0123C143.466 25.7894 141.293 25.359 139.848 23.9219C138.404 22.4848 137.972 20.3242 138.756 18.4477ZM143.426 22.1048C144.389 22.1048 145.169 21.3292 145.169 20.3724C145.168 19.4162 144.388 18.6413 143.426 18.64C142.464 18.64 141.683 19.4156 141.683 20.3724C141.683 21.3292 142.464 22.1048 143.426 22.1048Z" fill="white"/>
<path d="M142.533 11.5232C142.479 11.5239 142.425 11.5319 142.373 11.5471C142.244 11.5838 142.139 11.6767 142.087 11.7996C142.059 11.8624 142.044 11.9301 142.044 11.9988C142.047 12.0744 142.064 12.1488 142.094 12.2186C142.134 12.3245 142.237 12.3994 142.407 12.4472C142.464 12.4651 142.523 12.4745 142.582 12.4751C142.654 12.4729 142.724 12.4592 142.791 12.4344C142.897 12.3859 142.976 12.2923 143.005 12.1796C143.026 12.1203 143.038 12.0578 143.039 11.9948C143.044 11.882 143.005 11.7717 142.931 11.6865C142.829 11.5767 142.684 11.5169 142.533 11.5232Z" fill="white"/>
<path fill-rule="evenodd" clip-rule="evenodd" d="M148.567 13.0661C146.05 14.9641 143.521 14.573 141.671 13.0015C139.792 11.4038 139.206 9.59493 139.12 8.5093C138.925 6.02981 141.07 5.69767 142.143 6.19946C142.677 6.44882 143.001 6.807 143.31 7.14873C143.902 7.80359 144.44 8.39804 146.295 8.05052L146.322 8.04549C147.817 7.76226 149.186 7.50304 150.142 8.80082C150.73 9.59652 150.73 11.4364 148.567 13.0661ZM144.02 9.70889C143.974 9.70849 143.927 9.70396 143.882 9.69535C143.548 9.62765 143.48 9.42215 143.484 9.26206C143.484 9.22182 143.489 9.18174 143.498 9.14258C143.533 8.96019 143.609 8.84549 143.723 8.80487C143.8 8.77482 143.881 8.75786 143.964 8.75469C144.046 8.75621 144.127 8.77212 144.204 8.80168C144.352 8.85823 144.438 8.93709 144.458 9.03506C144.471 9.09025 144.478 9.14652 144.481 9.20312C144.48 9.28994 144.461 9.3757 144.425 9.45481C144.392 9.55645 144.314 9.63776 144.214 9.67623C144.151 9.6965 144.086 9.7075 144.02 9.70889ZM144.467 10.4878C144.455 10.4022 144.413 10.3233 144.349 10.2648C144.26 10.193 144.15 10.1512 144.035 10.1453C143.994 10.1402 143.952 10.1375 143.911 10.1374C143.776 10.1374 143.683 10.174 143.635 10.2465C143.596 10.3152 143.577 10.3937 143.581 10.4727C143.582 10.5203 143.584 10.5679 143.59 10.6153C143.614 10.8345 143.627 11.0549 143.627 11.2756C143.627 11.4618 143.617 11.6479 143.598 11.8331C143.586 11.9605 143.579 12.0513 143.579 12.1111C143.579 12.2401 143.635 12.456 144.008 12.456C144.072 12.4548 144.136 12.446 144.198 12.4297C144.301 12.4021 144.383 12.3222 144.412 12.2194C144.46 12.0936 144.483 11.81 144.483 11.3536V10.683C144.482 10.6176 144.477 10.5524 144.467 10.4878ZM147.434 9.81949V9.68409C147.433 9.6042 147.427 9.52443 147.417 9.44514C147.386 9.20619 147.222 9.07955 146.957 9.07955C146.762 9.07955 146.637 9.13292 146.584 9.23885C146.554 9.29952 146.54 9.36653 146.542 9.43399C146.542 9.47046 146.544 9.5069 146.549 9.54311C146.574 9.78206 146.588 9.94932 146.588 10.0377C146.588 10.0552 146.586 10.0726 146.582 10.0895C146.529 10.0825 146.478 10.0674 146.429 10.0449C146.305 9.99684 146.173 9.97304 146.04 9.97481C145.903 9.97906 145.768 10.0038 145.639 10.0481C145.472 10.1015 145.331 10.2377 145.222 10.4519C145.126 10.6375 145.077 10.9003 145.077 11.2317C145.073 11.4512 145.1 11.6702 145.157 11.8824C145.204 12.0607 145.314 12.216 145.467 12.3197C145.642 12.4375 145.847 12.506 146.058 12.518C146.088 12.518 146.119 12.519 146.149 12.52C146.179 12.521 146.209 12.522 146.239 12.522C146.378 12.522 146.518 12.5164 146.658 12.5061C146.805 12.4974 146.95 12.4764 147.093 12.4432C147.214 12.4162 147.315 12.3378 147.371 12.2289C147.431 12.0873 147.458 11.9345 147.452 11.7813C147.457 11.4794 147.46 11.1759 147.46 10.8796C147.456 10.5252 147.448 10.1692 147.434 9.81949ZM146.608 11.0238C146.608 11.0685 146.608 11.1593 146.602 11.2962V11.5129C146.602 11.555 146.599 11.597 146.594 11.6387C146.587 11.6714 146.567 11.7 146.539 11.7184C146.516 11.7351 146.45 11.7638 146.27 11.7638C146.183 11.7699 146.096 11.7497 146.021 11.7056C145.993 11.6865 145.946 11.626 145.93 11.4444C145.924 11.3647 145.92 11.2755 145.92 11.1895C145.92 10.9307 145.973 10.8422 146.001 10.8136C146.084 10.747 146.19 10.7145 146.296 10.7228C146.441 10.7228 146.505 10.7499 146.537 10.773C146.576 10.8051 146.601 10.8516 146.605 10.902C146.608 10.9425 146.609 10.9832 146.608 11.0238Z" fill="white"/>
<path d="M34.7251 19V10.54H36.2611V14.284H36.2851L40.0171 10.54H41.8891L37.7731 14.608L42.0931 19H40.1971L36.2851 15.088H36.2611V19H34.7251ZM45.2895 19.12C44.6255 19.12 44.0535 18.996 43.5735 18.748C43.0935 18.5 42.7215 18.148 42.4575 17.692C42.2015 17.236 42.0735 16.696 42.0735 16.072C42.0735 15.464 42.1975 14.932 42.4455 14.476C42.7015 14.02 43.0495 13.664 43.4895 13.408C43.9375 13.144 44.4455 13.012 45.0135 13.012C45.8455 13.012 46.5015 13.276 46.9815 13.804C47.4695 14.332 47.7135 15.052 47.7135 15.964V16.408H43.5135C43.6255 17.456 44.2255 17.98 45.3135 17.98C45.6415 17.98 45.9695 17.932 46.2975 17.836C46.6255 17.732 46.9255 17.572 47.1975 17.356L47.6175 18.364C47.3375 18.596 46.9855 18.78 46.5615 18.916C46.1375 19.052 45.7135 19.12 45.2895 19.12ZM45.0735 14.032C44.6335 14.032 44.2775 14.168 44.0055 14.44C43.7335 14.712 43.5695 15.08 43.5135 15.544H46.4655C46.4335 15.056 46.2975 14.684 46.0575 14.428C45.8255 14.164 45.4975 14.032 45.0735 14.032ZM48.9254 19V13.132H50.3894V14.032C50.5654 13.712 50.8094 13.464 51.1214 13.288C51.4334 13.104 51.7934 13.012 52.2014 13.012C53.0814 13.012 53.6574 13.396 53.9294 14.164C54.1134 13.804 54.3774 13.524 54.7214 13.324C55.0654 13.116 55.4574 13.012 55.8974 13.012C57.2174 13.012 57.8774 13.816 57.8774 15.424V19H56.3774V15.484C56.3774 15.036 56.3014 14.708 56.1494 14.5C56.0054 14.292 55.7574 14.188 55.4054 14.188C55.0134 14.188 54.7054 14.328 54.4814 14.608C54.2574 14.88 54.1454 15.26 54.1454 15.748V19H52.6454V15.484C52.6454 15.036 52.5694 14.708 52.4174 14.5C52.2734 14.292 52.0294 14.188 51.6854 14.188C51.2934 14.188 50.9854 14.328 50.7614 14.608C50.5374 14.88 50.4254 15.26 50.4254 15.748V19H48.9254ZM62.8089 19.12C62.3769 19.12 61.9889 19.024 61.6449 18.832C61.3089 18.64 61.0569 18.38 60.8889 18.052V19H59.4249V10.54H60.9249V13.996C61.1009 13.7 61.3529 13.464 61.6809 13.288C62.0169 13.104 62.3929 13.012 62.8089 13.012C63.3289 13.012 63.7809 13.136 64.1649 13.384C64.5489 13.632 64.8489 13.984 65.0649 14.44C65.2809 14.888 65.3889 15.428 65.3889 16.06C65.3889 16.684 65.2809 17.228 65.0649 17.692C64.8489 18.148 64.5449 18.5 64.1529 18.748C63.7689 18.996 63.3209 19.12 62.8089 19.12ZM62.3889 17.98C62.8369 17.98 63.1969 17.82 63.4689 17.5C63.7409 17.172 63.8769 16.692 63.8769 16.06C63.8769 15.42 63.7409 14.944 63.4689 14.632C63.1969 14.312 62.8369 14.152 62.3889 14.152C61.9409 14.152 61.5809 14.312 61.3089 14.632C61.0369 14.944 60.9009 15.42 60.9009 16.06C60.9009 16.692 61.0369 17.172 61.3089 17.5C61.5809 17.82 61.9409 17.98 62.3889 17.98ZM68.5522 19.12C68.1282 19.12 67.7482 19.04 67.4122 18.88C67.0842 18.712 66.8242 18.488 66.6322 18.208C66.4482 17.928 66.3562 17.612 66.3562 17.26C66.3562 16.828 66.4682 16.488 66.6922 16.24C66.9162 15.984 67.2802 15.8 67.7842 15.688C68.2882 15.576 68.9642 15.52 69.8122 15.52H70.2322V15.268C70.2322 14.868 70.1442 14.58 69.9682 14.404C69.7922 14.228 69.4962 14.14 69.0802 14.14C68.7522 14.14 68.4162 14.192 68.0722 14.296C67.7282 14.392 67.3802 14.544 67.0282 14.752L66.5962 13.732C66.8042 13.588 67.0482 13.464 67.3282 13.36C67.6162 13.248 67.9162 13.164 68.2282 13.108C68.5482 13.044 68.8482 13.012 69.1282 13.012C69.9842 13.012 70.6202 13.212 71.0362 13.612C71.4522 14.004 71.6602 14.616 71.6602 15.448V19H70.2562V18.064C70.1202 18.392 69.9042 18.652 69.6082 18.844C69.3122 19.028 68.9602 19.12 68.5522 19.12ZM68.8642 18.088C69.2562 18.088 69.5802 17.952 69.8362 17.68C70.1002 17.408 70.2322 17.064 70.2322 16.648V16.384H69.8242C69.0722 16.384 68.5482 16.444 68.2522 16.564C67.9642 16.676 67.8202 16.884 67.8202 17.188C67.8202 17.452 67.9122 17.668 68.0962 17.836C68.2802 18.004 68.5362 18.088 68.8642 18.088ZM75.2227 19.12C74.5267 19.12 74.0107 18.932 73.6747 18.556C73.3467 18.172 73.1827 17.612 73.1827 16.876V10.54H74.6827V16.804C74.6827 17.524 74.9867 17.884 75.5947 17.884C75.6827 17.884 75.7707 17.88 75.8587 17.872C75.9467 17.864 76.0307 17.848 76.1107 17.824L76.0867 19.012C75.7987 19.084 75.5107 19.12 75.2227 19.12ZM76.9187 11.872V10.408H78.5987V11.872H76.9187ZM77.0147 19V13.132H78.5147V19H77.0147ZM83.3077 19V10.54H84.8077V15.628H84.8317L87.1957 13.132H89.0077L86.3437 15.94L89.1757 19H87.3397L84.8317 16.384H84.8077V19H83.3077ZM92.5161 19.12C91.8521 19.12 91.2801 18.996 90.8001 18.748C90.3201 18.5 89.9481 18.148 89.6841 17.692C89.4281 17.236 89.3001 16.696 89.3001 16.072C89.3001 15.464 89.4241 14.932 89.6721 14.476C89.9281 14.02 90.2761 13.664 90.7161 13.408C91.1641 13.144 91.6721 13.012 92.2401 13.012C93.0721 13.012 93.7281 13.276 94.2081 13.804C94.6961 14.332 94.9401 15.052 94.9401 15.964V16.408H90.7401C90.8521 17.456 91.4521 17.98 92.5401 17.98C92.8681 17.98 93.1961 17.932 93.5241 17.836C93.8521 17.732 94.1521 17.572 94.4241 17.356L94.8441 18.364C94.5641 18.596 94.2121 18.78 93.7881 18.916C93.3641 19.052 92.9401 19.12 92.5161 19.12ZM92.3001 14.032C91.8601 14.032 91.5041 14.168 91.2321 14.44C90.9601 14.712 90.7961 15.08 90.7401 15.544H93.6921C93.6601 15.056 93.5241 14.684 93.2841 14.428C93.0521 14.164 92.7241 14.032 92.3001 14.032Z" fill="white"/>
<path fill-rule="evenodd" clip-rule="evenodd" d="M16.6002 26C22.4546 26 27.2005 21.0751 27.2005 15C27.2005 8.92487 22.4546 4 16.6002 4C10.7459 4 6 8.92487 6 15C6 21.0751 10.7459 26 16.6002 26ZM13.317 13.9H22.8974C23.427 13.9 23.8568 14.3107 23.8568 14.8167C23.8568 15.3227 23.427 15.7333 22.8974 15.7333H13.317L17.4356 19.6684C17.8102 20.0263 17.8102 20.6071 17.4356 20.9649C17.2483 21.1439 17.0027 21.2333 16.7571 21.2333C16.5115 21.2333 16.2659 21.1439 16.0786 20.9649L10.3221 15.4649C9.94753 15.1071 9.94753 14.5263 10.3221 14.1684L16.0786 8.66839C16.4532 8.31053 17.0611 8.31053 17.4356 8.66839C17.8102 9.02626 17.8102 9.60706 17.4356 9.96493L13.317 13.9Z" fill="white"/>
<defs>
<linearGradient id="paint0_linear_3_1486" x1="16.9697" y1="-61.3636" x2="48.6867" y2="8.56153" gradientUnits="userSpaceOnUse">
<stop stop-color="#20CEAE"/>
<stop offset="1" stop-color="#5ECEB8"/>
</linearGradient>
</defs>
</svg>
