<svg width="78" height="32" viewBox="0 0 78 32" fill="none" xmlns="http://www.w3.org/2000/svg">
<path d="M18 28.77L18.61 27.4C18.6242 27.3641 18.6491 27.3333 18.6813 27.3119C18.7134 27.2905 18.7514 27.2793 18.79 27.28C18.829 27.2778 18.8676 27.2883 18.9 27.31C18.9325 27.3316 18.9571 27.3632 18.97 27.4L19.58 28.77C19.5843 28.7898 19.5843 28.8102 19.58 28.83C19.58 28.8671 19.5653 28.9028 19.539 28.929C19.5127 28.9553 19.4771 28.97 19.44 28.97C19.4089 28.9713 19.3782 28.9622 19.3528 28.9441C19.3275 28.9259 19.3089 28.8999 19.3 28.87L19.16 28.56H18.36L18.22 28.88C18.2082 28.9072 18.1885 28.9302 18.1636 28.9462C18.1387 28.9622 18.1096 28.9705 18.08 28.97C18.0621 28.9701 18.0443 28.9664 18.0278 28.9593C18.0114 28.9521 17.9966 28.9416 17.9844 28.9285C17.9721 28.9153 17.9628 28.8998 17.9569 28.8828C17.951 28.8659 17.9486 28.8479 17.95 28.83C17.9606 28.8057 17.978 28.7849 18 28.77ZM19.08 28.3L18.79 27.63L18.5 28.3H19.08Z" fill="#4F5154"/>
<path d="M20.59 27.84C20.5899 27.8019 20.6043 27.7652 20.6303 27.7373C20.6563 27.7095 20.692 27.6925 20.73 27.69C20.7698 27.69 20.8079 27.7058 20.8361 27.7339C20.8642 27.7621 20.88 27.8002 20.88 27.84V27.9C20.9193 27.8339 20.9748 27.779 21.0413 27.7405C21.1079 27.702 21.1831 27.6812 21.26 27.68C21.3365 27.6763 21.4123 27.6952 21.4781 27.7343C21.5439 27.7735 21.5967 27.8311 21.63 27.9C21.677 27.8321 21.7397 27.7765 21.8129 27.7382C21.886 27.6999 21.9674 27.6799 22.05 27.68C22.1122 27.6764 22.1745 27.6867 22.2323 27.7101C22.2901 27.7335 22.3419 27.7695 22.384 27.8155C22.4261 27.8614 22.4575 27.9162 22.4758 27.9758C22.4942 28.0354 22.499 28.0983 22.49 28.16V28.83C22.49 28.8484 22.4864 28.8666 22.4793 28.8836C22.4723 28.9006 22.462 28.916 22.449 28.929C22.436 28.942 22.4206 28.9523 22.4036 28.9593C22.3866 28.9664 22.3684 28.97 22.35 28.97C22.3119 28.9701 22.2752 28.9557 22.2473 28.9297C22.2195 28.9037 22.2025 28.868 22.2 28.83V28.25C22.2 28.05 22.11 27.94 21.95 27.94C21.9109 27.9396 21.8722 27.9476 21.8365 27.9636C21.8009 27.9796 21.7691 28.0032 21.7434 28.0327C21.7177 28.0621 21.6988 28.0968 21.6878 28.1344C21.6769 28.1719 21.6742 28.2113 21.68 28.25V28.83C21.68 28.8671 21.6652 28.9027 21.639 28.929C21.6127 28.9553 21.5771 28.97 21.54 28.97C21.5029 28.97 21.4673 28.9553 21.441 28.929C21.4147 28.9027 21.4 28.8671 21.4 28.83V28.24C21.4 28.05 21.3 27.94 21.15 27.94C21.1109 27.9396 21.0722 27.9476 21.0365 27.9636C21.0009 27.9796 20.9691 28.0032 20.9434 28.0327C20.9177 28.0621 20.8988 28.0968 20.8878 28.1344C20.8769 28.1719 20.8742 28.2113 20.88 28.25V28.83C20.8775 28.868 20.8605 28.9037 20.8327 28.9297C20.8048 28.9557 20.7681 28.9701 20.73 28.97C20.6929 28.97 20.6573 28.9553 20.631 28.929C20.6047 28.9027 20.59 28.8671 20.59 28.83V27.84Z" fill="#4F5154"/>
<path d="M23.4 29C23.3152 29.0028 23.2307 28.9881 23.1518 28.9569C23.0729 28.9258 23.0013 28.8787 22.9413 28.8187C22.8813 28.7587 22.8342 28.6871 22.8031 28.6082C22.7719 28.5293 22.7572 28.4448 22.76 28.36C22.756 28.2769 22.7687 28.1939 22.7974 28.1158C22.8261 28.0378 22.8703 27.9663 22.9272 27.9056C22.9841 27.845 23.0526 27.7964 23.1287 27.7628C23.2048 27.7292 23.2868 27.7112 23.37 27.71C23.4505 27.7099 23.5302 27.7261 23.6043 27.7575C23.6785 27.7889 23.7455 27.8349 23.8015 27.8927C23.8575 27.9506 23.9013 28.0191 23.9302 28.0942C23.9592 28.1694 23.9727 28.2495 23.97 28.33C23.9701 28.3479 23.9664 28.3657 23.9592 28.3822C23.9521 28.3986 23.9416 28.4134 23.9285 28.4256C23.9153 28.4379 23.8998 28.4472 23.8828 28.4531C23.8659 28.459 23.8479 28.4614 23.83 28.46H23.05C23.0576 28.5493 23.0992 28.6322 23.1662 28.6918C23.2332 28.7513 23.3204 28.7829 23.41 28.78C23.5199 28.7804 23.6264 28.7413 23.71 28.67H23.78C23.8092 28.67 23.8372 28.6816 23.8578 28.7022C23.8784 28.7228 23.89 28.7508 23.89 28.78C23.897 28.794 23.9007 28.8094 23.9007 28.825C23.9007 28.8406 23.897 28.856 23.89 28.87C23.8218 28.9244 23.743 28.9641 23.6587 28.9865C23.5743 29.0088 23.4862 29.0134 23.4 29ZM23.69 28.26C23.69 28.218 23.6817 28.1764 23.6656 28.1375C23.6496 28.0987 23.626 28.0634 23.5963 28.0337C23.5666 28.004 23.5313 27.9804 23.4925 27.9644C23.4536 27.9483 23.412 27.94 23.37 27.94C23.2859 27.9425 23.206 27.977 23.1465 28.0365C23.087 28.096 23.0525 28.1759 23.05 28.26H23.69Z" fill="#4F5154"/>
<path d="M24.26 27.84C24.26 27.8029 24.2748 27.7673 24.301 27.741C24.3273 27.7148 24.3629 27.7 24.4 27.7C24.4371 27.7 24.4727 27.7148 24.499 27.741C24.5253 27.7673 24.54 27.8029 24.54 27.84V27.9C24.5793 27.8339 24.6348 27.779 24.7014 27.7405C24.7679 27.702 24.8431 27.6812 24.92 27.68C24.9977 27.6769 25.0747 27.6959 25.1419 27.7348C25.2092 27.7738 25.264 27.8311 25.3 27.9C25.347 27.8321 25.4097 27.7765 25.4829 27.7382C25.556 27.6999 25.6374 27.6799 25.72 27.68C25.7822 27.6764 25.8445 27.6867 25.9023 27.7101C25.9601 27.7335 26.0119 27.7695 26.054 27.8155C26.0962 27.8614 26.1275 27.9162 26.1459 27.9758C26.1642 28.0354 26.169 28.0983 26.16 28.16V28.83C26.1653 28.8525 26.1649 28.876 26.1589 28.8983C26.1529 28.9206 26.1415 28.9411 26.1257 28.958C26.1098 28.9748 26.0901 28.9875 26.0681 28.9948C26.0462 29.0021 26.0228 29.0039 26 29C25.9808 29.0014 25.9615 28.9988 25.9434 28.9924C25.9252 28.9859 25.9086 28.9758 25.8945 28.9627C25.8804 28.9496 25.8692 28.9337 25.8615 28.916C25.8539 28.8983 25.85 28.8793 25.85 28.86V28.28C25.85 28.08 25.76 27.97 25.6 27.97C25.44 27.97 25.33 28.08 25.33 28.28V28.86C25.33 28.8971 25.3153 28.9327 25.289 28.959C25.2627 28.9853 25.2271 29 25.19 29C25.1519 29.0001 25.1152 28.9857 25.0873 28.9597C25.0595 28.9337 25.0425 28.898 25.04 28.86V28.27C25.04 28.08 24.95 27.97 24.79 27.97C24.7509 27.9696 24.7122 27.9776 24.6765 27.9936C24.6409 28.0096 24.6091 28.0332 24.5834 28.0627C24.5577 28.0921 24.5388 28.1268 24.5278 28.1644C24.5169 28.2019 24.5142 28.2413 24.52 28.28V28.86C24.52 28.8971 24.5053 28.9327 24.479 28.959C24.4527 28.9853 24.4171 29 24.38 29C24.3429 29 24.3073 28.9853 24.281 28.959C24.2548 28.9327 24.24 28.8971 24.24 28.86L24.26 27.84Z" fill="#4F5154"/>
<path d="M26.5 27.36C26.5 27.3229 26.5147 27.2873 26.541 27.261C26.5673 27.2348 26.6029 27.22 26.64 27.22C26.6771 27.22 26.7127 27.2348 26.739 27.261C26.7652 27.2873 26.78 27.3229 26.78 27.36V27.92C26.8269 27.8482 26.8905 27.7888 26.9654 27.747C27.0403 27.7052 27.1243 27.6822 27.21 27.68C27.2915 27.6824 27.3716 27.7014 27.4455 27.7359C27.5194 27.7703 27.5855 27.8194 27.6398 27.8803C27.6941 27.9411 27.7354 28.0123 27.7612 28.0897C27.787 28.167 27.7968 28.2488 27.79 28.33C27.7983 28.4115 27.7896 28.4939 27.7643 28.5719C27.7391 28.6499 27.6979 28.7217 27.6433 28.7829C27.5887 28.844 27.522 28.8931 27.4474 28.9271C27.3728 28.961 27.292 28.979 27.21 28.98C27.1257 28.9817 27.0423 28.9625 26.9673 28.9241C26.8923 28.8857 26.8279 28.8294 26.78 28.76V28.83C26.78 28.8671 26.7652 28.9027 26.739 28.929C26.7127 28.9553 26.6771 28.97 26.64 28.97C26.6029 28.97 26.5673 28.9553 26.541 28.929C26.5147 28.9027 26.5 28.8671 26.5 28.83V27.36ZM27.5 28.36C27.5 28.2645 27.4621 28.173 27.3946 28.1054C27.327 28.0379 27.2355 28 27.14 28C27.0445 28 26.953 28.0379 26.8854 28.1054C26.8179 28.173 26.78 28.2645 26.78 28.36C26.7773 28.4099 26.7845 28.4599 26.8011 28.507C26.8178 28.5542 26.8436 28.5975 26.877 28.6347C26.9104 28.6719 26.9509 28.7021 26.996 28.7236C27.0411 28.7451 27.0901 28.7574 27.14 28.76C27.1938 28.761 27.2471 28.75 27.2961 28.7277C27.345 28.7054 27.3884 28.6724 27.4229 28.6312C27.4575 28.5899 27.4823 28.5414 27.4956 28.4893C27.509 28.4372 27.5105 28.3828 27.5 28.33V28.36Z" fill="#4F5154"/>
<path d="M28.65 29C28.5652 29.0028 28.4807 28.9881 28.4018 28.9569C28.3229 28.9258 28.2513 28.8787 28.1913 28.8187C28.1313 28.7587 28.0842 28.6871 28.0531 28.6082C28.0219 28.5293 28.0072 28.4448 28.01 28.36C28.006 28.2769 28.0187 28.1939 28.0474 28.1158C28.0761 28.0378 28.1203 27.9663 28.1772 27.9056C28.2341 27.845 28.3026 27.7964 28.3787 27.7628C28.4548 27.7292 28.5368 27.7112 28.62 27.71C28.7005 27.7099 28.7802 27.7261 28.8543 27.7575C28.9285 27.7889 28.9955 27.8349 29.0515 27.8927C29.1075 27.9506 29.1513 28.0191 29.1802 28.0942C29.2092 28.1694 29.2227 28.2495 29.22 28.33C29.2201 28.3479 29.2164 28.3657 29.2092 28.3822C29.2021 28.3986 29.1916 28.4134 29.1785 28.4256C29.1653 28.4379 29.1498 28.4472 29.1328 28.4531C29.1159 28.459 29.0979 28.4614 29.08 28.46H28.3C28.3026 28.5047 28.3139 28.5484 28.3334 28.5887C28.3529 28.629 28.3801 28.665 28.4136 28.6947C28.447 28.7245 28.486 28.7473 28.5283 28.7619C28.5706 28.7766 28.6153 28.7827 28.66 28.78C28.7672 28.7817 28.8709 28.7423 28.95 28.67C28.9764 28.6643 29.0036 28.6643 29.03 28.67C29.0592 28.67 29.0872 28.6816 29.1078 28.7022C29.1284 28.7228 29.14 28.7508 29.14 28.78C29.1507 28.809 29.1507 28.841 29.14 28.87C29.0718 28.9244 28.993 28.9641 28.9087 28.9865C28.8243 29.0088 28.7362 29.0134 28.65 29ZM28.94 28.26C28.94 28.1751 28.9063 28.0937 28.8463 28.0337C28.7863 27.9737 28.7049 27.94 28.62 27.94C28.5351 27.94 28.4537 27.9737 28.3937 28.0337C28.3337 28.0937 28.3 28.1751 28.3 28.26H28.94Z" fill="#4F5154"/>
<path d="M29.51 27.84C29.51 27.8029 29.5247 27.7673 29.551 27.741C29.5773 27.7148 29.6129 27.7 29.65 27.7C29.6871 27.7 29.7227 27.7148 29.749 27.741C29.7752 27.7673 29.79 27.8029 29.79 27.84V28C29.8116 27.928 29.8531 27.8635 29.9097 27.814C29.9663 27.7644 30.0357 27.7319 30.11 27.72C30.1288 27.7185 30.1476 27.7211 30.1653 27.7276C30.183 27.7341 30.199 27.7444 30.2123 27.7577C30.2256 27.771 30.2359 27.787 30.2424 27.8047C30.2489 27.8224 30.2515 27.8412 30.25 27.86C30.2514 27.8771 30.2493 27.8943 30.244 27.9106C30.2387 27.9269 30.2303 27.942 30.2191 27.955C30.208 27.968 30.1943 27.9787 30.1791 27.9864C30.1638 27.9941 30.1471 27.9987 30.13 28C29.93 28 29.79 28.19 29.79 28.49V28.86C29.79 28.8971 29.7752 28.9328 29.749 28.959C29.7227 28.9853 29.6871 29 29.65 29C29.6129 29 29.5773 28.9853 29.551 28.959C29.5247 28.9328 29.51 28.8971 29.51 28.86V27.84Z" fill="#4F5154"/>
<path d="M31.12 28.34C31.12 28.2529 31.1374 28.1668 31.1713 28.0866C31.2052 28.0064 31.2549 27.9338 31.3174 27.8732C31.3799 27.8125 31.4539 27.7651 31.5351 27.7336C31.6163 27.7022 31.703 27.6873 31.79 27.69C31.8766 27.6873 31.9628 27.7022 32.0434 27.7337C32.1241 27.7653 32.1975 27.8129 32.2592 27.8737C32.3209 27.9345 32.3696 28.0071 32.4024 28.0873C32.4352 28.1674 32.4514 28.2534 32.45 28.34C32.4301 28.5023 32.3514 28.6518 32.2289 28.7601C32.1064 28.8685 31.9485 28.9283 31.785 28.9283C31.6214 28.9283 31.4635 28.8685 31.3411 28.7601C31.2186 28.6518 31.1399 28.5023 31.12 28.34ZM32.12 28.34C32.12 28.2392 32.08 28.1426 32.0087 28.0713C31.9374 28 31.8408 27.96 31.74 27.96C31.6392 27.96 31.5426 28 31.4713 28.0713C31.4 28.1426 31.36 28.2392 31.36 28.34C31.3587 28.3921 31.3678 28.4439 31.3868 28.4923C31.4058 28.5408 31.4343 28.585 31.4706 28.6223C31.507 28.6596 31.5504 28.6892 31.5984 28.7094C31.6464 28.7296 31.6979 28.74 31.75 28.74C31.8045 28.7461 31.8596 28.7401 31.9115 28.7223C31.9633 28.7045 32.0106 28.6755 32.0498 28.6372C32.089 28.5989 32.1193 28.5524 32.1383 28.501C32.1574 28.4496 32.1648 28.3946 32.16 28.34H32.12Z" fill="#4F5154"/>
<path d="M32.8 28C32.7698 28.0001 32.7407 27.9888 32.7185 27.9684C32.6962 27.9481 32.6825 27.92 32.68 27.89C32.6799 27.8572 32.6922 27.8255 32.7145 27.8014C32.7367 27.7773 32.7673 27.7625 32.8 27.76V27.67C32.7962 27.5582 32.8315 27.4485 32.9 27.36C32.979 27.2964 33.0787 27.2643 33.18 27.27H33.33C33.3548 27.2774 33.3765 27.2926 33.3919 27.3133C33.4074 27.334 33.4157 27.3591 33.4157 27.385C33.4157 27.4108 33.4074 27.436 33.3919 27.4567C33.3765 27.4774 33.3548 27.4926 33.33 27.5H33.27C33.16 27.5 33.1 27.56 33.1 27.69V27.76H33.32C33.3379 27.7546 33.3568 27.7536 33.3752 27.7568C33.3936 27.7601 33.411 27.7676 33.426 27.7788C33.441 27.7899 33.4531 27.8045 33.4615 27.8212C33.4699 27.8379 33.4743 27.8563 33.4743 27.875C33.4743 27.8937 33.4699 27.9121 33.4615 27.9288C33.4531 27.9455 33.441 27.96 33.426 27.9712C33.411 27.9824 33.3936 27.9899 33.3752 27.9931C33.3568 27.9964 33.3379 27.9953 33.32 27.99H33.11V28.87C33.1075 28.908 33.0905 28.9436 33.0627 28.9696C33.0348 28.9956 32.9981 29.0101 32.96 29.01C32.9229 29.01 32.8873 28.9952 32.861 28.969C32.8347 28.9427 32.82 28.9071 32.82 28.87L32.8 28Z" fill="#4F5154"/>
<path d="M34.36 27.45C34.36 27.4102 34.3758 27.3721 34.4039 27.3439C34.4321 27.3158 34.4702 27.3 34.51 27.3H35.51C35.5445 27.3 35.5775 27.3137 35.6019 27.3381C35.6263 27.3624 35.64 27.3955 35.64 27.43C35.6414 27.4479 35.639 27.4659 35.6331 27.4828C35.6272 27.4998 35.6179 27.5153 35.6056 27.5284C35.5934 27.5416 35.5786 27.5521 35.5622 27.5592C35.5457 27.5664 35.5279 27.57 35.51 27.57H34.69V28H35.4C35.4345 28 35.4675 28.0137 35.4919 28.0381C35.5163 28.0624 35.53 28.0955 35.53 28.13C35.53 28.1645 35.5163 28.1975 35.4919 28.2219C35.4675 28.2463 35.4345 28.26 35.4 28.26H34.69V28.8C34.69 28.8398 34.6742 28.8779 34.6461 28.9061C34.6179 28.9342 34.5798 28.95 34.54 28.95C34.5002 28.95 34.4621 28.9342 34.4339 28.9061C34.4058 28.8779 34.39 28.8398 34.39 28.8L34.36 27.45Z" fill="#4F5154"/>
<path d="M35.9 27.36C35.9 27.3229 35.9147 27.2873 35.941 27.261C35.9673 27.2348 36.0029 27.22 36.04 27.22C36.0771 27.22 36.1127 27.2348 36.139 27.261C36.1652 27.2873 36.18 27.3229 36.18 27.36V28.83C36.18 28.8671 36.1652 28.9027 36.139 28.929C36.1127 28.9553 36.0771 28.97 36.04 28.97C36.0029 28.97 35.9673 28.9553 35.941 28.929C35.9147 28.9027 35.9 28.8671 35.9 28.83V27.36Z" fill="#4F5154"/>
<path d="M36.58 29.31C36.5544 29.3017 36.5321 29.2858 36.5159 29.2643C36.4998 29.2428 36.4908 29.2169 36.49 29.19C36.49 29.1582 36.5026 29.1277 36.5251 29.1051C36.5476 29.0826 36.5782 29.07 36.61 29.07H36.71C36.79 29.07 36.84 29.07 36.89 28.93L36.42 27.93C36.4151 27.9069 36.4151 27.8831 36.42 27.86C36.42 27.8229 36.4347 27.7873 36.461 27.761C36.4873 27.7348 36.5229 27.72 36.56 27.72C36.63 27.72 36.67 27.72 36.7 27.83L37.03 28.66L37.35 27.83C37.3566 27.7999 37.3728 27.7728 37.3963 27.753C37.4198 27.7331 37.4492 27.7215 37.48 27.72C37.5171 27.72 37.5527 27.7348 37.579 27.761C37.6052 27.7873 37.62 27.8229 37.62 27.86C37.62 27.86 37.62 27.91 37.62 27.93L37.2 29C37.1 29.26 36.98 29.35 36.78 29.35C36.7115 29.3482 36.6439 29.3347 36.58 29.31Z" fill="#4F5154"/>
<path d="M37.93 27.37C37.9312 27.3494 37.9366 27.3292 37.946 27.3107C37.9553 27.2923 37.9684 27.276 37.9844 27.2628C38.0004 27.2497 38.0189 27.24 38.0388 27.2343C38.0587 27.2287 38.0795 27.2272 38.1 27.23C38.1197 27.2287 38.1395 27.2312 38.1582 27.2375C38.1769 27.2438 38.1942 27.2538 38.2091 27.2668C38.2239 27.2798 38.2361 27.2956 38.2448 27.3133C38.2536 27.331 38.2587 27.3503 38.26 27.37C38.2587 27.3897 38.2536 27.409 38.2448 27.4267C38.2361 27.4444 38.2239 27.4602 38.2091 27.4733C38.1942 27.4863 38.1769 27.4962 38.1582 27.5025C38.1395 27.5088 38.1197 27.5114 38.1 27.51C38.0795 27.5128 38.0587 27.5113 38.0388 27.5057C38.0189 27.5 38.0004 27.4903 37.9844 27.4772C37.9684 27.464 37.9553 27.4477 37.946 27.4293C37.9366 27.4108 37.9312 27.3907 37.93 27.37ZM37.93 27.84C37.93 27.8002 37.9458 27.7621 37.9739 27.7339C38.0021 27.7058 38.0402 27.69 38.08 27.69C38.118 27.6926 38.1536 27.7095 38.1796 27.7373C38.2057 27.7652 38.2201 27.8019 38.22 27.84V28.84C38.22 28.8584 38.2164 28.8766 38.2093 28.8936C38.2023 28.9106 38.192 28.926 38.179 28.939C38.166 28.952 38.1506 28.9623 38.1336 28.9694C38.1166 28.9764 38.0984 28.98 38.08 28.98C38.0419 28.9801 38.0052 28.9657 37.9773 28.9397C37.9495 28.9137 37.9325 28.878 37.93 28.84V27.84Z" fill="#4F5154"/>
<path d="M38.61 27.84C38.6099 27.8019 38.6243 27.7652 38.6503 27.7373C38.6763 27.7095 38.712 27.6925 38.75 27.69C38.7898 27.69 38.8279 27.7058 38.8561 27.7339C38.8842 27.7621 38.9 27.8002 38.9 27.84V27.9C38.9402 27.8325 38.9973 27.7766 39.0657 27.7381C39.1341 27.6995 39.2114 27.6794 39.29 27.68C39.3518 27.6781 39.4132 27.6896 39.4701 27.7136C39.5271 27.7377 39.5782 27.7737 39.6199 27.8192C39.6617 27.8648 39.6931 27.9188 39.7121 27.9776C39.7311 28.0364 39.7372 28.0986 39.73 28.16V28.83C39.73 28.8671 39.7153 28.9027 39.689 28.929C39.6627 28.9553 39.6271 28.97 39.59 28.97C39.5529 28.97 39.5173 28.9553 39.491 28.929C39.4648 28.9027 39.45 28.8671 39.45 28.83V28.25C39.45 28.05 39.35 27.94 39.18 27.94C39.1406 27.9398 39.1015 27.9479 39.0654 27.9638C39.0294 27.9797 38.997 28.0031 38.9706 28.0323C38.9442 28.0616 38.9242 28.0961 38.912 28.1336C38.8999 28.1711 38.8958 28.2108 38.9 28.25V28.83C38.9001 28.8493 38.8961 28.8683 38.8885 28.886C38.8808 28.9037 38.8696 28.9196 38.8555 28.9327C38.8414 28.9458 38.8248 28.9559 38.8067 28.9624C38.7885 28.9688 38.7692 28.9714 38.75 28.97C38.7316 28.97 38.7134 28.9664 38.6964 28.9593C38.6794 28.9523 38.664 28.942 38.651 28.929C38.638 28.916 38.6277 28.9006 38.6207 28.8836C38.6136 28.8666 38.61 28.8484 38.61 28.83V27.84Z" fill="#4F5154"/>
<path d="M40.15 29.23C40.1271 29.2219 40.1072 29.2071 40.0929 29.1874C40.0786 29.1678 40.0706 29.1443 40.07 29.12C40.07 29.0882 40.0826 29.0577 40.1051 29.0352C40.1276 29.0127 40.1582 29 40.19 29H40.24C40.3568 29.0633 40.4872 29.0976 40.62 29.1C40.6735 29.1082 40.7282 29.1038 40.7798 29.0873C40.8313 29.0707 40.8783 29.0424 40.9171 29.0046C40.9559 28.9668 40.9853 28.9205 41.0032 28.8694C41.0211 28.8183 41.0268 28.7637 41.02 28.71V28.62C40.9716 28.692 40.9061 28.7507 40.8292 28.7909C40.7524 28.8311 40.6667 28.8514 40.58 28.85C40.5034 28.8501 40.4276 28.8347 40.3571 28.8048C40.2867 28.7749 40.2229 28.7311 40.1697 28.6761C40.1165 28.621 40.0749 28.5558 40.0475 28.4843C40.0201 28.4128 40.0073 28.3365 40.01 28.26C40.0088 28.1434 40.0434 28.0292 40.1091 27.9329C40.1748 27.8366 40.2685 27.7627 40.3775 27.7213C40.4865 27.6799 40.6056 27.6729 40.7187 27.7013C40.8318 27.7297 40.9335 27.792 41.01 27.88V27.83C41.01 27.7929 41.0247 27.7573 41.051 27.731C41.0773 27.7048 41.1129 27.69 41.15 27.69C41.1871 27.69 41.2227 27.7048 41.249 27.731C41.2752 27.7573 41.29 27.7929 41.29 27.83V28.69C41.3037 28.8603 41.2498 29.0291 41.14 29.16C40.9947 29.281 40.8087 29.3419 40.62 29.33C40.458 29.3308 40.2977 29.2967 40.15 29.23ZM41.02 28.23C41.0201 28.1823 41.0104 28.1351 40.9916 28.0913C40.9728 28.0475 40.9452 28.008 40.9105 27.9752C40.8759 27.9424 40.8349 27.9171 40.7901 27.9007C40.7453 27.8843 40.6976 27.8773 40.65 27.88C40.6037 27.8786 40.5575 27.8867 40.5144 27.9038C40.4713 27.9209 40.4322 27.9467 40.3994 27.9794C40.3666 28.0122 40.3409 28.0514 40.3238 28.0945C40.3067 28.1375 40.2986 28.1837 40.3 28.23C40.3 28.2755 40.3091 28.3206 40.3268 28.3625C40.3445 28.4044 40.3704 28.4423 40.4031 28.474C40.4357 28.5057 40.4744 28.5306 40.5168 28.5471C40.5592 28.5635 40.6045 28.5714 40.65 28.57C40.7348 28.5709 40.817 28.5409 40.8814 28.4858C40.9457 28.4306 40.9879 28.3539 41 28.27L41.02 28.23Z" fill="#4F5154"/>
<path d="M42.33 28.13C42.3273 28.0172 42.3474 27.905 42.389 27.8001C42.4306 27.6952 42.493 27.5997 42.5723 27.5194C42.6517 27.4392 42.7464 27.3757 42.8508 27.3329C42.9552 27.29 43.0671 27.2686 43.18 27.27C43.3864 27.2645 43.5882 27.3318 43.75 27.46C43.758 27.4772 43.7622 27.496 43.7622 27.515C43.7622 27.534 43.758 27.5528 43.75 27.57C43.7514 27.5892 43.7488 27.6085 43.7424 27.6266C43.7359 27.6448 43.7258 27.6614 43.7127 27.6755C43.6996 27.6896 43.6837 27.7008 43.666 27.7085C43.6483 27.7161 43.6293 27.72 43.61 27.72C43.5804 27.7272 43.5496 27.7272 43.52 27.72C43.4126 27.6241 43.2739 27.5707 43.13 27.57C43.0556 27.5713 42.9822 27.5874 42.9141 27.6174C42.846 27.6473 42.7845 27.6906 42.7333 27.7446C42.6821 27.7986 42.6421 27.8622 42.6158 27.9319C42.5895 28.0015 42.5773 28.0756 42.58 28.15C42.576 28.2252 42.5871 28.3004 42.6128 28.3712C42.6385 28.442 42.6782 28.5068 42.7296 28.5619C42.7809 28.617 42.8428 28.6612 42.9116 28.6918C42.9804 28.7224 43.0547 28.7388 43.13 28.74C43.282 28.7405 43.4285 28.6833 43.54 28.58C43.569 28.5693 43.601 28.5693 43.63 28.58C43.6664 28.5823 43.7006 28.5979 43.7264 28.6236C43.7521 28.6494 43.7676 28.6836 43.77 28.72C43.7807 28.7525 43.7807 28.7875 43.77 28.82C43.6472 28.9322 43.4944 29.0064 43.3303 29.0335C43.1662 29.0606 42.9977 29.0396 42.8453 28.9729C42.6929 28.9062 42.5631 28.7968 42.4716 28.6578C42.3801 28.5189 42.331 28.3564 42.33 28.19V28.13Z" fill="#4F5154"/>
<path d="M44 28.6C44 28.33 44.21 28.2 44.52 28.2C44.6327 28.1825 44.7473 28.1825 44.86 28.2C44.86 28.02 44.75 27.93 44.55 27.93C44.4574 27.9131 44.3626 27.9131 44.27 27.93C44.2389 27.9277 44.2097 27.9143 44.1877 27.8923C44.1657 27.8703 44.1523 27.8411 44.15 27.81C44.1522 27.7849 44.1607 27.7607 44.1746 27.7398C44.1886 27.7188 44.2077 27.7017 44.23 27.69C44.3583 27.6439 44.4936 27.6203 44.63 27.62C44.7058 27.6142 44.782 27.6235 44.8541 27.6476C44.9263 27.6716 44.9929 27.7098 45.05 27.76C45.0965 27.8131 45.132 27.8749 45.1544 27.9419C45.1767 28.0089 45.1854 28.0796 45.18 28.15V28.76C45.1958 28.7718 45.209 28.7866 45.2191 28.8036C45.2291 28.8205 45.2357 28.8393 45.2385 28.8588C45.2413 28.8783 45.2402 28.8982 45.2353 28.9172C45.2304 28.9363 45.2218 28.9542 45.21 28.97C45.1982 28.9858 45.1834 28.999 45.1664 29.0091C45.1495 29.0191 45.1307 29.0257 45.1112 29.0285C45.0917 29.0313 45.0719 29.0302 45.0528 29.0253C45.0337 29.0204 45.0158 29.0118 45 29C44.9829 29.0014 44.9657 28.9993 44.9494 28.994C44.9331 28.9887 44.9181 28.9803 44.905 28.9691C44.892 28.958 44.8814 28.9444 44.8736 28.9291C44.8659 28.9138 44.8613 28.8971 44.86 28.88V28.8C44.8119 28.859 44.7507 28.906 44.6813 28.9373C44.6118 28.9685 44.5361 28.9831 44.46 28.98C44.4043 28.9885 44.3475 28.9851 44.2932 28.9701C44.2389 28.9551 44.1884 28.9288 44.145 28.893C44.1015 28.8571 44.0662 28.8125 44.0412 28.762C44.0162 28.7115 44.0022 28.6563 44 28.6ZM44.86 28.51V28.42C44.7708 28.3854 44.6757 28.3684 44.58 28.37C44.39 28.37 44.28 28.45 44.28 28.58C44.28 28.7 44.39 28.76 44.53 28.76C44.67 28.76 44.88 28.67 44.88 28.51H44.86Z" fill="#4F5154"/>
<path d="M45.49 27.84C45.4899 27.8019 45.5043 27.7652 45.5303 27.7373C45.5563 27.7095 45.592 27.6925 45.63 27.69C45.6698 27.69 45.7079 27.7058 45.7361 27.7339C45.7642 27.7621 45.78 27.8002 45.78 27.84V27.92C45.824 27.8477 45.8856 27.7878 45.959 27.7458C46.0325 27.7038 46.1154 27.6812 46.2 27.68C46.282 27.681 46.3628 27.699 46.4374 27.7329C46.512 27.7669 46.5787 27.816 46.6333 27.8771C46.6879 27.9383 46.7291 28.0101 46.7543 28.0881C46.7796 28.1661 46.7883 28.2485 46.78 28.33C46.7883 28.4115 46.7796 28.4939 46.7543 28.5719C46.7291 28.6498 46.6879 28.7217 46.6333 28.7828C46.5787 28.844 46.512 28.8931 46.4374 28.9271C46.3628 28.961 46.282 28.979 46.2 28.98C46.1173 28.9809 46.0356 28.9613 45.9623 28.9229C45.889 28.8845 45.8263 28.8286 45.78 28.76V29.2C45.7859 29.2222 45.7866 29.2455 45.7821 29.268C45.7775 29.2905 45.7679 29.3117 45.7539 29.3299C45.7399 29.3481 45.7219 29.3628 45.7012 29.373C45.6806 29.3831 45.658 29.3884 45.635 29.3884C45.612 29.3884 45.5894 29.3831 45.5688 29.373C45.5481 29.3628 45.5301 29.3481 45.5161 29.3299C45.5021 29.3117 45.4925 29.2905 45.4879 29.268C45.4834 29.2455 45.4841 29.2222 45.49 29.2V27.84ZM46.49 28.33C46.4941 28.2806 46.4882 28.2309 46.4727 28.1838C46.4572 28.1367 46.4324 28.0932 46.3997 28.0559C46.3671 28.0186 46.3272 27.9882 46.2826 27.9666C46.238 27.9449 46.1895 27.9325 46.14 27.93C46.0892 27.9313 46.0392 27.9427 45.9929 27.9636C45.9466 27.9845 45.905 28.0145 45.8705 28.0518C45.836 28.0891 45.8093 28.133 45.7921 28.1807C45.7748 28.2285 45.7673 28.2793 45.77 28.33C45.7673 28.3807 45.7748 28.4315 45.7921 28.4792C45.8093 28.527 45.836 28.5709 45.8705 28.6081C45.905 28.6454 45.9466 28.6754 45.9929 28.6964C46.0392 28.7173 46.0892 28.7287 46.14 28.73C46.19 28.7289 46.2392 28.7174 46.2845 28.6963C46.3298 28.6751 46.3702 28.6448 46.4032 28.6071C46.4361 28.5695 46.4608 28.5254 46.4758 28.4777C46.4907 28.43 46.4956 28.3797 46.49 28.33Z" fill="#4F5154"/>
<path d="M47.65 29C47.5652 29.0028 47.4807 28.9881 47.4018 28.9569C47.3229 28.9258 47.2513 28.8787 47.1913 28.8187C47.1313 28.7587 47.0842 28.6871 47.053 28.6082C47.0219 28.5293 47.0072 28.4448 47.01 28.36C47.006 28.2769 47.0187 28.1939 47.0474 28.1158C47.0761 28.0378 47.1203 27.9663 47.1772 27.9056C47.2341 27.845 47.3026 27.7964 47.3787 27.7628C47.4548 27.7292 47.5368 27.7112 47.62 27.71C47.6997 27.7113 47.7783 27.7284 47.8512 27.7604C47.9242 27.7924 47.9901 27.8386 48.045 27.8963C48.0999 27.954 48.1428 28.0221 48.1711 28.0965C48.1994 28.171 48.2127 28.2504 48.21 28.33C48.21 28.3645 48.1963 28.3975 48.1719 28.4219C48.1475 28.4463 48.1145 28.46 48.08 28.46H47.29C47.2976 28.5493 47.3392 28.6322 47.4062 28.6918C47.4732 28.7513 47.5604 28.7829 47.65 28.78C47.7603 28.7822 47.8673 28.743 47.95 28.67H48.02C48.0492 28.67 48.0772 28.6816 48.0978 28.7022C48.1184 28.7228 48.13 28.7508 48.13 28.78C48.1417 28.8089 48.1417 28.8411 48.13 28.87C47.9926 28.9733 47.8208 29.0198 47.65 29ZM47.93 28.26C47.93 28.1751 47.8963 28.0937 47.8363 28.0337C47.7763 27.9737 47.6949 27.94 47.61 27.94C47.5267 27.9448 47.448 27.98 47.389 28.039C47.33 28.098 47.2948 28.1767 47.29 28.26H47.93Z" fill="#4F5154"/>
<path d="M49.17 28.13C49.1673 28.0172 49.1874 27.905 49.229 27.8001C49.2706 27.6952 49.333 27.5997 49.4123 27.5194C49.4917 27.4392 49.5864 27.3757 49.6908 27.3329C49.7952 27.29 49.9072 27.2686 50.02 27.27C50.2236 27.262 50.4241 27.3218 50.59 27.44C50.6076 27.4549 50.622 27.4732 50.6323 27.4938C50.6427 27.5145 50.6487 27.537 50.65 27.56C50.6475 27.598 50.6305 27.6337 50.6027 27.6597C50.5748 27.6857 50.5381 27.7001 50.5 27.7C50.4711 27.7117 50.4389 27.7117 50.41 27.7C50.2959 27.6114 50.1544 27.5654 50.01 27.57C49.9364 27.5726 49.8641 27.5896 49.7972 27.6202C49.7302 27.6507 49.6699 27.6942 49.6198 27.7481C49.5696 27.8019 49.5306 27.8652 49.5049 27.9341C49.4792 28.0031 49.4673 28.0764 49.47 28.15C49.4644 28.2264 49.4748 28.3031 49.5006 28.3752C49.5264 28.4473 49.5669 28.5132 49.6196 28.5688C49.6723 28.6243 49.7361 28.6682 49.8067 28.6977C49.8774 28.7272 49.9534 28.7416 50.03 28.74C50.1742 28.743 50.3151 28.6972 50.43 28.61V28.3H50.11C50.0934 28.3014 50.0767 28.2993 50.061 28.2939C50.0453 28.2885 50.0308 28.2799 50.0186 28.2686C50.0064 28.2573 49.9966 28.2436 49.99 28.2284C49.9833 28.2131 49.9799 28.1966 49.98 28.18C49.98 28.1455 49.9937 28.1125 50.0181 28.0881C50.0425 28.0637 50.0755 28.05 50.11 28.05H50.57C50.6098 28.05 50.6479 28.0658 50.6761 28.0939C50.7042 28.1221 50.72 28.1602 50.72 28.2V28.64C50.7203 28.6773 50.7101 28.7139 50.6907 28.7457C50.6712 28.7775 50.6433 28.8032 50.61 28.82C50.4317 28.9448 50.2175 29.008 50 29C49.8871 29.0016 49.7752 28.9799 49.6711 28.9362C49.567 28.8925 49.4731 28.8278 49.3952 28.7461C49.3173 28.6644 49.257 28.5676 49.2183 28.4615C49.1796 28.3555 49.1631 28.2427 49.17 28.13Z" fill="#4F5154"/>
<path d="M51.06 27.84C51.06 27.8029 51.0747 27.7673 51.101 27.741C51.1273 27.7148 51.1629 27.7 51.2 27.7C51.2371 27.7 51.2727 27.7148 51.299 27.741C51.3252 27.7673 51.34 27.8029 51.34 27.84V28C51.3616 27.928 51.4031 27.8635 51.4597 27.814C51.5163 27.7644 51.5857 27.7319 51.66 27.72C51.6788 27.7185 51.6976 27.7211 51.7153 27.7276C51.733 27.7341 51.749 27.7444 51.7623 27.7577C51.7757 27.771 51.7859 27.787 51.7924 27.8047C51.7989 27.8224 51.8015 27.8412 51.8 27.86C51.8029 27.893 51.7932 27.9258 51.7727 27.9518C51.7523 27.9778 51.7227 27.9951 51.69 28C51.5791 28.0196 51.4804 28.0819 51.4149 28.1735C51.3495 28.2651 51.3226 28.3788 51.34 28.49V28.86C51.34 28.8971 51.3252 28.9328 51.299 28.959C51.2727 28.9853 51.2371 29 51.2 29C51.1629 29 51.1273 28.9853 51.101 28.959C51.0747 28.9328 51.06 28.8971 51.06 28.86V27.84Z" fill="#4F5154"/>
<path d="M51.92 28.34C51.92 28.2529 51.9374 28.1668 51.9713 28.0866C52.0052 28.0064 52.0549 27.9338 52.1174 27.8732C52.1799 27.8125 52.2539 27.7651 52.3351 27.7336C52.4163 27.7022 52.503 27.6873 52.59 27.69C52.6766 27.6873 52.7628 27.7022 52.8434 27.7337C52.9241 27.7653 52.9975 27.8129 53.0592 27.8737C53.1209 27.9345 53.1696 28.0071 53.2024 28.0873C53.2352 28.1674 53.2514 28.2534 53.25 28.34C53.2301 28.5023 53.1514 28.6518 53.0289 28.7601C52.9064 28.8685 52.7485 28.9283 52.585 28.9283C52.4215 28.9283 52.2636 28.8685 52.1411 28.7601C52.0186 28.6518 51.9399 28.5023 51.92 28.34ZM52.92 28.34C52.9227 28.2885 52.9149 28.2369 52.897 28.1884C52.8791 28.14 52.8516 28.0957 52.816 28.0583C52.7805 28.0209 52.7377 27.9911 52.6902 27.9707C52.6427 27.9504 52.5916 27.9399 52.54 27.94C52.4888 27.9398 52.4381 27.9503 52.3911 27.9708C52.3442 27.9912 52.3019 28.0212 52.2672 28.0588C52.2324 28.0964 52.2058 28.1408 52.1891 28.1892C52.1723 28.2376 52.1658 28.289 52.17 28.34C52.1673 28.3916 52.1751 28.4431 52.193 28.4916C52.2109 28.54 52.2384 28.5843 52.274 28.6217C52.3095 28.6592 52.3523 28.689 52.3998 28.7093C52.4473 28.7296 52.4984 28.7401 52.55 28.74C52.6074 28.7531 52.6671 28.7522 52.7241 28.7376C52.7812 28.7229 52.8339 28.6949 52.8779 28.6558C52.9219 28.6167 52.9559 28.5676 52.9772 28.5127C52.9984 28.4578 53.0062 28.3986 53 28.34H52.92Z" fill="#4F5154"/>
<path d="M54.65 28.83C54.6475 28.868 54.6305 28.9036 54.6027 28.9297C54.5748 28.9557 54.5381 28.9701 54.5 28.97C54.4629 28.97 54.4273 28.9552 54.401 28.929C54.3748 28.9027 54.36 28.8671 54.36 28.83V28.76C54.325 28.827 54.2737 28.8842 54.2107 28.9261C54.1478 28.968 54.0753 28.9935 54 29C53.9374 29.0033 53.8748 28.993 53.8167 28.9696C53.7585 28.9462 53.7062 28.9104 53.6633 28.8647C53.6204 28.819 53.5881 28.7644 53.5685 28.7049C53.5489 28.6453 53.5426 28.5822 53.55 28.52V27.86C53.55 27.8202 53.5658 27.7821 53.5939 27.7539C53.6221 27.7258 53.6602 27.71 53.7 27.71C53.738 27.7125 53.7737 27.7295 53.7997 27.7573C53.8257 27.7852 53.8401 27.8219 53.84 27.86V28.44C53.84 28.63 53.94 28.74 54.11 28.74C54.1494 28.7402 54.1885 28.7321 54.2246 28.7162C54.2607 28.7003 54.293 28.6769 54.3194 28.6477C54.3458 28.6184 54.3658 28.5839 54.378 28.5464C54.3901 28.5089 54.3942 28.4692 54.39 28.43V27.86C54.3899 27.8219 54.4043 27.7852 54.4303 27.7573C54.4563 27.7295 54.492 27.7125 54.53 27.71C54.5698 27.71 54.6079 27.7258 54.6361 27.7539C54.6642 27.7821 54.68 27.8202 54.68 27.86L54.65 28.83Z" fill="#4F5154"/>
<path d="M55 27.84C54.9999 27.8019 55.0143 27.7652 55.0403 27.7373C55.0663 27.7095 55.102 27.6925 55.14 27.69C55.1798 27.69 55.2179 27.7058 55.2461 27.7339C55.2742 27.7621 55.29 27.8002 55.29 27.84V27.92C55.334 27.8477 55.3956 27.7878 55.469 27.7458C55.5425 27.7038 55.6254 27.6812 55.71 27.68C55.792 27.681 55.8728 27.699 55.9474 27.7329C56.022 27.7669 56.0887 27.816 56.1433 27.8771C56.1979 27.9383 56.2391 28.0101 56.2643 28.0881C56.2896 28.1661 56.2983 28.2485 56.29 28.33C56.2983 28.4115 56.2896 28.4939 56.2643 28.5719C56.2391 28.6498 56.1979 28.7217 56.1433 28.7828C56.0887 28.844 56.022 28.8931 55.9474 28.9271C55.8728 28.961 55.792 28.979 55.71 28.98C55.6269 28.9828 55.5446 28.964 55.4709 28.9255C55.3973 28.8869 55.335 28.8299 55.29 28.76V29.2C55.29 29.2398 55.2742 29.2779 55.2461 29.3061C55.2179 29.3342 55.1798 29.35 55.14 29.35C55.102 29.3475 55.0663 29.3305 55.0403 29.3027C55.0143 29.2748 54.9999 29.2381 55 29.2V27.84ZM56 28.33C56.0041 28.2798 55.9979 28.2292 55.9818 28.1815C55.9657 28.1338 55.94 28.0898 55.9062 28.0524C55.8725 28.0149 55.8315 27.9847 55.7858 27.9637C55.74 27.9427 55.6904 27.9312 55.64 27.93C55.5901 27.9326 55.5411 27.9449 55.496 27.9664C55.4509 27.9879 55.4104 28.0181 55.377 28.0553C55.3436 28.0924 55.3178 28.1358 55.3011 28.183C55.2845 28.2301 55.2773 28.2801 55.28 28.33C55.2773 28.3799 55.2845 28.4299 55.3011 28.477C55.3178 28.5241 55.3436 28.5675 55.377 28.6047C55.4104 28.6419 55.4509 28.672 55.496 28.6936C55.5411 28.7151 55.5901 28.7274 55.64 28.73C55.6908 28.7303 55.7412 28.7199 55.7877 28.6993C55.8342 28.6788 55.8758 28.6486 55.9098 28.6108C55.9438 28.573 55.9694 28.5285 55.985 28.4801C56.0005 28.4317 56.0057 28.3805 56 28.33Z" fill="#4F5154"/>
<path d="M28.41 10.22C28.4365 10.5627 28.3602 10.9056 28.191 11.2048C28.0218 11.504 27.7673 11.746 27.46 11.9C26.64 12.35 25.79 12.72 24.95 13.1C24.0459 13.4707 23.1924 13.9546 22.41 14.54C21.9488 14.8807 21.5554 15.3047 21.25 15.79C21.0523 16.1418 20.933 16.5321 20.9002 16.9342C20.8674 17.3364 20.9219 17.7409 21.06 18.12C21.3115 18.8153 21.6654 19.4692 22.11 20.06C22.41 20.48 22.74 20.87 23 21.31C23.1897 21.6158 23.296 21.966 23.3083 22.3257C23.3206 22.6853 23.2384 23.042 23.07 23.36C22.8671 23.7757 22.5327 24.1128 22.1186 24.3189C21.7045 24.5251 21.234 24.5887 20.78 24.5C20.3461 24.4347 19.9405 24.245 19.6121 23.9539C19.2838 23.6629 19.0469 23.2829 18.93 22.86C18.84 22.6 18.77 22.33 18.68 22.06C18.6687 22.0101 18.6484 21.9626 18.62 21.92C18.5655 21.7751 18.4808 21.6435 18.3715 21.5338C18.2622 21.4242 18.1308 21.3391 17.9861 21.2843C17.8413 21.2294 17.6865 21.206 17.532 21.2156C17.3775 21.2252 17.2268 21.2676 17.09 21.34C16.8721 21.4394 16.7005 21.6183 16.61 21.84C16.4504 22.1955 16.32 22.5634 16.22 22.94C16.0234 23.6898 15.7659 24.4222 15.45 25.13C15.3059 25.4248 15.1029 25.687 14.8535 25.9003C14.6041 26.1136 14.3136 26.2734 14 26.37C13.6981 26.4527 13.3819 26.4696 13.0729 26.4198C12.7638 26.3699 12.4691 26.2544 12.2085 26.0809C11.9479 25.9075 11.7274 25.6802 11.5621 25.4144C11.3968 25.1486 11.2903 24.8504 11.25 24.54C11.2146 24.0716 11.3043 23.6023 11.51 23.18C11.8932 22.3607 12.2271 21.5192 12.51 20.66C12.7492 19.965 12.92 19.2482 13.02 18.52C13.1 17.8892 13.1 17.2508 13.02 16.62C12.9059 15.5875 12.7322 14.5625 12.5 13.55C12.2208 12.3607 11.8082 11.2067 11.27 10.11C11.01 9.56 10.71 9.03 10.47 8.47C10.2832 8.08349 10.1874 7.6593 10.19 7.23C10.2272 6.72195 10.4419 6.24316 10.7966 5.87751C11.1513 5.51185 11.6233 5.28264 12.13 5.23C12.4219 5.20853 12.7153 5.23214 13 5.3C13.2939 5.36469 13.5668 5.50201 13.7939 5.69941C14.021 5.89681 14.195 6.148 14.3 6.43C14.4607 6.80204 14.6009 7.18261 14.72 7.57C15.0421 8.53906 15.5866 9.41922 16.31 10.14C16.94 10.771 17.7719 11.1604 18.66 11.24C19.6194 11.3402 20.589 11.2223 21.4964 10.895C22.4038 10.5677 23.2255 10.0396 23.9 9.35C24.2104 9.02547 24.5447 8.72463 24.9 8.45C25.2308 8.17584 25.6359 8.00656 26.0634 7.96381C26.4909 7.92106 26.9214 8.00678 27.3 8.21C27.6466 8.38222 27.9386 8.64731 28.1434 8.97572C28.3482 9.30413 28.4578 9.68296 28.46 10.07L28.41 10.22Z" fill="#FBB92B"/>
<path d="M40.41 19C40.4081 19.2862 40.3746 19.5712 40.31 19.85C40.2452 20.1655 40.0983 20.4584 39.8841 20.6989C39.6698 20.9395 39.3959 21.1192 39.09 21.22C38.482 21.4254 37.8558 21.5727 37.22 21.66C36.4115 21.8113 35.5923 21.8983 34.77 21.92C33.6822 21.9588 32.617 21.6037 31.77 20.92C31.3107 20.541 30.9647 20.0428 30.77 19.48C30.5291 18.8044 30.368 18.103 30.29 17.39C30.2033 16.7807 30.1665 16.1653 30.18 15.55C30.1823 14.6568 30.413 13.779 30.85 13C31.1825 12.3458 31.7507 11.8419 32.44 11.59C33.1031 11.3209 33.8146 11.1915 34.53 11.21C34.8684 11.2316 35.2035 11.2885 35.53 11.38L35.82 11.46C35.99 11.46 36 11.46 35.98 11.31C35.96 11.16 35.88 10.67 35.82 10.31C35.76 9.95001 35.66 9.46001 35.59 9.03001C35.5351 8.77628 35.5351 8.51374 35.59 8.26001C35.628 8.07176 35.7117 7.89575 35.8338 7.74751C35.9558 7.59927 36.1125 7.48336 36.29 7.41001C36.842 7.16207 37.4593 7.09894 38.05 7.23001C38.3851 7.29969 38.6903 7.47188 38.9232 7.72272C39.1562 7.97356 39.3053 8.29063 39.35 8.63001C39.46 9.14001 39.5 9.63001 39.57 10.17C39.64 10.71 39.72 11.38 39.79 11.98C39.86 12.58 39.92 13.08 39.97 13.64C40.02 14.2 40.1 14.95 40.16 15.64L40.28 17.05C40.34 17.66 40.4 18.24 40.41 19ZM35.51 14.48C35.1664 14.4764 34.8258 14.5445 34.51 14.68C34.3879 14.7236 34.2785 14.7966 34.1913 14.8925C34.1041 14.9884 34.0418 15.1043 34.01 15.23C33.9521 15.4756 33.9286 15.728 33.94 15.98C33.9366 16.3576 33.9566 16.7349 34 17.11C34.0391 17.4529 34.1231 17.7891 34.25 18.11C34.2871 18.2125 34.3513 18.3029 34.4359 18.3716C34.5204 18.4403 34.6221 18.4847 34.73 18.5C35.2427 18.5879 35.7694 18.5431 36.26 18.37C36.3747 18.3437 36.4757 18.2763 36.5439 18.1804C36.6121 18.0845 36.6428 17.967 36.63 17.85C36.6348 17.7734 36.6348 17.6966 36.63 17.62C36.58 17.02 36.53 16.41 36.49 15.8C36.4752 15.5319 36.4451 15.2648 36.4 15C36.3812 14.8694 36.3219 14.748 36.2304 14.6529C36.1389 14.5578 36.0198 14.4938 35.89 14.47C35.7646 14.4468 35.6364 14.4435 35.51 14.46V14.48Z" fill="#46BFAA"/>
<path d="M41.89 18.19C41.9028 16.7508 42.1949 15.3279 42.75 14C43.0339 13.3695 43.4621 12.8145 44 12.38C44.4431 11.9883 45.0007 11.7498 45.59 11.7C46.3364 11.604 47.0948 11.6758 47.81 11.91C48.1289 12.0219 48.4342 12.1696 48.72 12.35C48.82 12.42 48.94 12.47 49.04 12.53C49.14 12.59 49.13 12.53 49.14 12.53C49.21 12.13 49.25 11.73 49.29 11.34C49.3115 10.8466 49.3683 10.3553 49.46 9.87C49.4917 9.7351 49.5386 9.60425 49.6 9.48C49.6929 9.29015 49.8343 9.1282 50.0099 9.01055C50.1855 8.8929 50.3891 8.82372 50.6 8.81C51.1501 8.7504 51.7058 8.85111 52.2 9.1C52.5134 9.25237 52.771 9.49953 52.9361 9.80645C53.1012 10.1134 53.1656 10.4645 53.12 10.81C53.04 11.81 52.83 12.81 52.68 13.81C52.48 15.11 52.24 16.4 51.99 17.69C51.79 18.69 51.61 19.74 51.36 20.75C51.2556 21.1971 51.0691 21.621 50.81 22C50.6461 22.2336 50.4293 22.425 50.1773 22.5589C49.9253 22.6927 49.6453 22.765 49.36 22.77C48.715 22.7968 48.0688 22.7633 47.43 22.67C46.6583 22.5953 45.893 22.4649 45.14 22.28C44.1228 22.0443 43.2142 21.4738 42.56 20.66C42.1807 20.1629 41.9579 19.5641 41.92 18.94C41.9 18.66 41.89 18.42 41.89 18.19ZM45.57 18.08V18.26C45.5589 18.4175 45.5999 18.5742 45.6866 18.7061C45.7734 18.838 45.901 18.9378 46.05 18.99C46.4968 19.1728 46.9776 19.258 47.46 19.24C47.571 19.2441 47.6798 19.2079 47.7662 19.138C47.8526 19.0682 47.9108 18.9694 47.93 18.86C47.9965 18.6366 48.0499 18.4096 48.09 18.18C48.21 17.53 48.37 16.88 48.48 16.23C48.5121 16.1382 48.5247 16.0408 48.5171 15.9438C48.5094 15.8469 48.4817 15.7526 48.4356 15.667C48.3895 15.5814 48.3261 15.5063 48.2493 15.4466C48.1726 15.3868 48.0843 15.3437 47.99 15.32C47.6326 15.185 47.2517 15.1238 46.87 15.14C46.6879 15.1351 46.5089 15.1875 46.3582 15.2898C46.2075 15.392 46.0927 15.539 46.03 15.71L45.94 15.93C45.7264 16.6282 45.6021 17.3506 45.57 18.08Z" fill="#46BFAA"/>
<path d="M64.87 19.65C64.8679 20.8049 64.5222 21.933 63.8769 22.8908C63.2317 23.8487 62.316 24.5929 61.2466 25.0287C60.1771 25.4646 59.0021 25.5724 57.8712 25.3385C56.7402 25.1046 55.7045 24.5395 54.8956 23.7151C54.0868 22.8908 53.5416 21.8444 53.3292 20.7092C53.1169 19.574 53.2471 18.4013 53.7033 17.3403C54.1594 16.2794 54.9209 15.3781 55.8908 14.7512C56.8608 14.1243 57.9953 13.8002 59.15 13.82C60.6779 13.8463 62.1342 14.4724 63.2044 15.5632C64.2746 16.654 64.8729 18.1219 64.87 19.65ZM59.04 21.65C59.4413 21.649 59.8331 21.5273 60.1643 21.3007C60.4955 21.0742 60.7509 20.7532 60.8973 20.3795C61.0437 20.0058 61.0743 19.5967 60.9851 19.2055C60.8959 18.8142 60.691 18.4588 60.3971 18.1855C60.1032 17.9122 59.7339 17.7336 59.3372 17.673C58.9405 17.6123 58.5347 17.6725 58.1726 17.8455C57.8106 18.0186 57.5089 18.2966 57.3069 18.6434C57.1049 18.9901 57.0119 19.3897 57.04 19.79C57.0773 20.2872 57.299 20.7525 57.6616 21.0947C58.0242 21.437 58.5015 21.6314 59 21.64L59.04 21.65Z" fill="#46BFAA"/>
<path d="M16.23 6.41001C16.23 5.75889 16.4232 5.1224 16.7852 4.58115C17.1471 4.0399 17.6615 3.61822 18.2633 3.3695C18.865 3.12079 19.5271 3.05622 20.1655 3.18398C20.804 3.31174 21.3902 3.62607 21.8499 4.08719C22.3096 4.5483 22.6222 5.13546 22.748 5.77432C22.8738 6.41317 22.8072 7.07499 22.5567 7.67598C22.3061 8.27698 21.8829 8.79011 21.3405 9.15041C20.7982 9.51072 20.1611 9.70199 19.51 9.70001C18.64 9.69474 17.8072 9.34611 17.193 8.72997C16.5787 8.11383 16.2326 7.28004 16.23 6.41001Z" fill="#46BFAA"/>
<path d="M26.94 23C26.6759 23.0162 26.414 22.9432 26.1963 22.7927C25.9787 22.6422 25.818 22.4229 25.74 22.17C25.59 21.74 25.5 21.3 25.38 20.87C25.1447 20.0767 24.8367 19.3068 24.46 18.57C24.17 17.97 23.87 17.38 23.55 16.8C23.4374 16.6014 23.3596 16.3849 23.32 16.16C23.2711 15.9483 23.2924 15.7264 23.3809 15.528C23.4693 15.3295 23.6199 15.1652 23.81 15.06C24.3825 14.7151 25.0323 14.5191 25.7 14.49C26.0236 14.4639 26.3464 14.5488 26.6153 14.7305C26.8843 14.9122 27.0834 15.1801 27.18 15.49C27.57 16.41 27.97 17.32 28.37 18.23C28.6882 18.9562 28.9522 19.7049 29.16 20.47C29.2793 20.8307 29.3102 21.2148 29.25 21.59C29.2217 21.7566 29.1591 21.9156 29.0661 22.0567C28.9732 22.1979 28.8519 22.3182 28.71 22.41C28.2399 22.7301 27.7029 22.9387 27.14 23.02L26.94 23Z" fill="#46BFAA"/>
<path d="M60.93 12.66C59.6524 12.6424 58.4171 12.199 57.42 11.4C56.0582 10.4233 55.0147 9.06674 54.42 7.5C54.1588 6.83488 54.0331 6.12434 54.05 5.41C54.043 4.80582 54.2483 4.21834 54.63 3.75C54.9808 3.3423 55.4676 3.0758 56 3C56.4506 2.92374 56.9131 2.96057 57.346 3.10719C57.7788 3.2538 58.1685 3.5056 58.48 3.84C58.78 4.13 59.05 4.47 59.35 4.76C59.7875 5.20239 60.3781 5.46009 61 5.48C61.5745 5.50172 62.1495 5.44792 62.71 5.32C63.2658 5.19702 63.8313 5.1234 64.4 5.1C65.129 5.06313 65.8445 5.30641 66.4 5.78C66.6632 6.00837 66.8711 6.29356 67.008 6.61405C67.1448 6.93454 67.2071 7.28193 67.19 7.63C67.14 8.50873 66.7866 9.34288 66.19 9.99C65.1961 11.2222 63.8323 12.1022 62.3 12.5C61.852 12.6115 61.3916 12.6652 60.93 12.66ZM63.72 8.73C63.72 8.27 63.72 7.73 63.72 7.2C63.72 6.67 63.55 6.56 63.12 6.56C62.69 6.56 62.63 6.74 62.67 7.08C62.67 7.26 62.67 7.43 62.67 7.6C62.67 7.77 62.67 7.74 62.55 7.69C62.3833 7.61654 62.202 7.58233 62.02 7.59C61.7916 7.58334 61.5677 7.65513 61.3858 7.79341C61.2039 7.93169 61.0748 8.12812 61.02 8.35C60.9303 8.75846 60.9303 9.18153 61.02 9.59C61.0328 9.84645 61.1438 10.0881 61.33 10.265C61.5162 10.4419 61.7632 10.5403 62.02 10.54C62.3753 10.585 62.7348 10.585 63.09 10.54C63.54 10.54 63.71 10.3 63.73 9.88C63.75 9.46 63.72 9.15 63.72 8.73ZM60.29 9V8.36C60.3041 8.22881 60.2657 8.09739 60.1833 7.99437C60.1009 7.89135 59.9811 7.82508 59.85 7.81C59.7636 7.79981 59.6764 7.79981 59.59 7.81C59.5436 7.80226 59.496 7.8052 59.4509 7.81859C59.4058 7.83197 59.3643 7.85546 59.3296 7.88726C59.2949 7.91907 59.2679 7.95835 59.2506 8.00214C59.2334 8.04593 59.2263 8.09307 59.23 8.14C59.225 8.19989 59.225 8.2601 59.23 8.32C59.29 8.85164 59.29 9.38835 59.23 9.92C59.2058 9.9988 59.2022 10.0825 59.2197 10.1631C59.2373 10.2437 59.2752 10.3184 59.33 10.38C59.4195 10.4538 59.5282 10.5005 59.6434 10.5146C59.7585 10.5288 59.8753 10.5098 59.98 10.46C60.057 10.429 60.1224 10.3748 60.1672 10.3049C60.212 10.235 60.2339 10.1529 60.23 10.07C60.2802 9.71566 60.3002 9.35772 60.29 9ZM59.74 7.33C60.09 7.33 60.27 7.13 60.29 6.74C60.31 6.35 60.07 6.22 59.69 6.2C59.61 6.19165 59.5292 6.2016 59.4537 6.22911C59.3781 6.25662 59.3098 6.30096 59.2539 6.35877C59.198 6.41658 59.156 6.48635 59.1311 6.56279C59.1062 6.63924 59.0989 6.72035 59.11 6.8C59.11 7.09 59.37 7.3 59.74 7.31V7.33ZM57.46 9.93C57.46 10.33 57.7 10.48 58.09 10.51C58.1649 10.5117 58.2392 10.4976 58.3082 10.4685C58.3772 10.4395 58.4393 10.3961 58.4903 10.3413C58.5413 10.2865 58.5801 10.2215 58.6042 10.1506C58.6283 10.0797 58.6371 10.0045 58.63 9.93C58.6114 9.78801 58.5418 9.65763 58.4342 9.56318C58.3265 9.46873 58.1882 9.41665 58.045 9.41665C57.9018 9.41665 57.7635 9.46873 57.6559 9.56318C57.5482 9.65763 57.4786 9.78801 57.46 9.93Z" fill="#FBB92B"/>
<path d="M62.7 9.08999V9.45999C62.7028 9.48312 62.7008 9.50656 62.6941 9.52888C62.6874 9.5512 62.6762 9.5719 62.6612 9.58972C62.6462 9.60754 62.6277 9.62208 62.6069 9.63245C62.586 9.64281 62.5633 9.64878 62.54 9.64999C62.441 9.66992 62.339 9.66992 62.24 9.64999C62.04 9.64999 61.98 9.54999 61.96 9.33999C61.945 9.15696 61.945 8.97302 61.96 8.78999C61.96 8.74842 61.9683 8.70728 61.9845 8.669C62.0007 8.63072 62.0244 8.59609 62.0543 8.56717C62.0842 8.53825 62.1195 8.51563 62.1583 8.50065C62.1971 8.48568 62.2385 8.47865 62.28 8.47999C62.69 8.47999 62.69 8.58999 62.68 8.84999V9.07999L62.7 9.08999Z" fill="#FBB92B"/>
</svg>
