<svg width="60" height="60" viewBox="0 0 60 60" fill="none" xmlns="http://www.w3.org/2000/svg">
<path d="M52.6075 57.7156L6.67074 57.5931C3.40413 57.5931 0.75 54.8982 0.75 51.6315L0.831665 15.7396L58.6916 15.9029L58.6099 51.7949C58.6099 55.0615 55.915 57.7156 52.6075 57.7156Z" fill="#F2F2F5"/>
<path d="M53.5467 52.8157L44.686 52.7749L44.7677 19.3329L53.6284 19.3737L53.5467 52.8157ZM45.5027 51.9582H52.7301L52.8117 20.1495H45.5844L45.5027 51.9582Z" fill="#C7C9D9"/>
<path d="M53.5469 52.8158L5.48682 52.6933L5.56848 19.2513L53.6286 19.3738L53.5469 52.8158ZM6.30347 51.8767L52.7303 51.9992L52.8119 20.1905L6.38514 20.0272L6.30347 51.8767Z" fill="#C7C9D9"/>
<path d="M53.6288 28.1937L5.52783 28.0712L5.56866 19.2105L53.6288 19.333V28.1937ZM6.38532 27.2545L52.8121 27.377V20.1496L6.38532 20.0271V27.2545Z" fill="#C7C9D9"/>
<path d="M53.5879 44.5676L5.52783 44.4451L5.56866 35.5844L53.5879 35.7069V44.5676ZM6.34449 43.6285L52.7713 43.751V36.5236L6.34449 36.4011V43.6285Z" fill="#C7C9D9"/>
<path d="M37.9486 52.7751L29.0879 52.7342L29.1696 19.2922L38.0303 19.3331L37.9486 52.7751ZM29.9045 51.9176H37.1319L37.2136 20.1089H29.9862L29.9045 51.9176Z" fill="#C7C9D9"/>
<path d="M22.3099 52.7342L13.4492 52.6933L13.5309 19.2513H22.3916L22.3099 52.7342ZM14.2659 51.8767H21.4933L21.5749 20.068H14.3475L14.2659 51.8767Z" fill="#C7C9D9"/>
<path d="M58.692 15.8622L0.832031 15.7397V8.47148C0.832031 6.71567 2.26118 5.28653 4.01698 5.28653L55.4662 5.40903C57.222 5.40903 58.6511 6.83817 58.6511 8.59398L58.692 15.8622Z" fill="#C7C9D9"/>
<path d="M50.7703 11.4112C51.8753 11.4112 52.7711 10.5154 52.7711 9.41041C52.7711 8.3054 51.8753 7.40961 50.7703 7.40961C49.6653 7.40961 48.7695 8.3054 48.7695 9.41041C48.7695 10.5154 49.6653 11.4112 50.7703 11.4112Z" fill="#8F90A6"/>
<path d="M50.7705 9.73706C50.2397 9.73706 49.7905 9.2879 49.7905 8.75708V4.10215C49.7905 3.57132 50.2397 3.12216 50.7705 3.12216C51.3013 3.12216 51.7505 3.57132 51.7505 4.10215V8.75708C51.7505 9.2879 51.3013 9.73706 50.7705 9.73706Z" fill="#F2F2F5"/>
<path d="M9.06652 11.2186C10.1336 10.9315 10.766 9.83369 10.4789 8.76658C10.1918 7.69947 9.09401 7.06713 8.0269 7.35421C6.95979 7.6413 6.32745 8.73909 6.61454 9.8062C6.90162 10.8733 7.99941 11.5056 9.06652 11.2186Z" fill="#8F90A6"/>
<path d="M8.54932 9.6149C8.0185 9.6149 7.56934 9.16574 7.56934 8.63491V3.97998C7.56934 3.44916 8.0185 3 8.54932 3C9.08015 3 9.52931 3.44916 9.52931 3.97998V8.63491C9.52931 9.20657 9.08015 9.6149 8.54932 9.6149Z" fill="#F2F2F5"/>
<path d="M21.289 9.32893C21.289 10.4314 20.3907 11.3297 19.2474 11.3297C18.1449 11.3297 17.2466 10.4314 17.2466 9.2881C17.2466 8.18561 18.1449 7.28729 19.2882 7.28729C20.3907 7.32813 21.289 8.22644 21.289 9.32893Z" fill="#8F90A6"/>
<path d="M19.2476 9.65564C18.7167 9.65564 18.2676 9.20648 18.2676 8.67565V4.02073C18.2676 3.4899 18.7167 3.04074 19.2476 3.04074C19.7784 3.04074 20.2275 3.4899 20.2275 4.02073V8.67565C20.2275 9.20648 19.7784 9.65564 19.2476 9.65564Z" fill="#F2F2F5"/>
<path d="M41.1816 11.2019C42.1882 10.746 42.6345 9.56038 42.1786 8.55382C41.7227 7.54727 40.5371 7.10089 39.5305 7.55682C38.524 8.01275 38.0776 9.19833 38.5335 10.2049C38.9895 11.2114 40.175 11.6578 41.1816 11.2019Z" fill="#8F90A6"/>
<path d="M40.3584 9.69635C39.8276 9.69635 39.3784 9.24719 39.3784 8.71636V4.06144C39.3784 3.53061 39.8276 3.08145 40.3584 3.08145C40.8892 3.08145 41.3384 3.53061 41.3384 4.06144V8.71636C41.3384 9.28802 40.9301 9.69635 40.3584 9.69635Z" fill="#F2F2F5"/>
</svg>
