<svg width="152" height="152" viewBox="0 0 152 152" fill="none" xmlns="http://www.w3.org/2000/svg">
<g clip-path="url(#clip0_1491_37856)">
<rect width="152" height="152" fill="white"/>
<path d="M76.2346 20.0594C64.0715 20.0594 54.1787 29.955 54.1787 42.118V53.546C54.1787 65.7099 64.0715 75.6055 76.2346 75.6055C88.3985 75.6055 98.2904 65.7099 98.2904 53.546V42.118C98.2907 29.955 88.3985 20.0594 76.2346 20.0594Z" fill="#EBEBF0"/>
<path d="M124.878 104.35C117.815 92.3144 106.526 83.3915 93.091 79.2249C92.7795 79.1282 92.4427 79.2104 92.2106 79.4398C85.9607 85.6021 78.1945 90.4099 76.253 91.5712C74.1805 90.2465 65.4508 84.5564 60.261 79.4398C60.0298 79.2104 59.6903 79.1282 59.3806 79.2249C45.9433 83.3924 34.6553 92.3153 27.5954 104.351C27.4337 104.626 27.4337 104.969 27.5954 105.244C37.6209 122.328 56.2587 132.94 76.2358 132.94C96.2138 132.94 114.853 122.328 124.878 105.244C125.041 104.968 125.041 104.626 124.878 104.35ZM106.234 110.93C106.234 111.416 105.771 111.789 105.285 111.789H99.3112C98.8245 111.789 98.2935 112.207 98.2935 112.694V118.872C98.2935 119.358 98.0334 119.729 97.5466 119.729H92.1817C91.6949 119.729 91.2362 119.358 91.2362 118.872V112.694C91.2344 112.208 90.9021 111.789 90.4153 111.789H84.1844C83.6976 111.789 83.2949 111.416 83.2949 110.93V105.611C83.2949 105.124 83.6976 104.731 84.1844 104.731H90.4153C90.9021 104.731 91.2344 104.334 91.2344 103.846V97.6613C91.2344 97.1746 91.6931 96.7908 92.1799 96.7908H97.487C97.9729 96.7908 98.2926 97.1746 98.2926 97.6613V103.864C98.2926 104.352 98.7639 104.73 99.2516 104.73H105.285C105.771 104.73 106.234 105.142 106.234 105.629V110.93Z" fill="#EBEBF0"/>
</g>
<defs>
<clipPath id="clip0_1491_37856">
<rect width="152" height="152" fill="white"/>
</clipPath>
</defs>
</svg>
