<svg width="140" height="80" viewBox="0 0 140 80" fill="none" xmlns="http://www.w3.org/2000/svg">
<g clip-path="url(#clip0_1922_38653)">
<path d="M3.8506 79.1516L32.3972 79.2758L47.8025 79.2206L58.2107 79.1792L65.5406 79.1516H65.8167L68.5223 79.1378H68.6189L81.8707 79.0826H82.4643L93.2038 79.0412L96.8204 79.0274L101.886 79.0136L105.42 78.9998L114.048 78.9583L116.533 78.9445L119.928 78.9307L125.947 78.9031L135.237 78.8617C135.237 78.8617 135.554 78.2129 136.038 77.0258C136.396 76.1561 136.824 74.9966 137.28 73.6024C137.363 73.3401 137.446 73.0779 137.528 72.8018C137.653 72.4153 137.763 72.0149 137.887 71.6008C137.929 71.449 137.97 71.2971 138.025 71.1315C138.288 70.179 138.55 69.1713 138.785 68.0946C138.798 68.0256 138.812 67.9428 138.84 67.8737C138.923 67.4596 139.019 67.0455 139.088 66.6176C139.13 66.3829 139.171 66.1344 139.226 65.8998V65.8446C139.24 65.7617 139.254 65.6651 139.268 65.5685C139.558 63.843 139.792 61.9933 139.903 60.0607C139.916 59.7156 139.944 59.3843 139.958 59.0392C139.972 58.6941 139.985 58.3352 139.985 57.9901C140.027 55.8091 139.903 53.5314 139.571 51.2261C139.447 50.3289 139.281 49.4178 139.074 48.5068C138.923 47.8442 138.757 47.1816 138.577 46.5052C138.536 46.3809 138.508 46.2567 138.467 46.1325C138.039 44.6417 137.501 43.1646 136.838 41.6876C136.783 41.5496 136.714 41.4253 136.659 41.2873C136.162 40.2244 135.61 39.1477 134.988 38.0986C134.919 37.9881 134.864 37.8777 134.795 37.7811C134.436 37.1875 134.036 36.5939 133.622 36.0004C133.014 35.1445 132.366 34.2887 131.662 33.4466C130.682 32.2871 129.715 31.238 128.749 30.2855C128.349 29.8852 127.962 29.5125 127.562 29.1536C127.231 28.8499 126.885 28.5462 126.554 28.2701C126.54 28.2563 126.513 28.2425 126.499 28.2287C125.726 27.5661 124.953 26.9726 124.194 26.4342C124.042 26.3238 123.89 26.2133 123.724 26.1167C122.979 25.606 122.234 25.1504 121.502 24.7501C121.336 24.6673 121.184 24.5707 121.019 24.4878C117.126 22.431 113.44 21.7685 110.072 21.7823C109.907 21.7823 109.755 21.7823 109.589 21.7823C108.802 21.7961 108.029 21.8513 107.27 21.9341C104.095 22.2654 101.252 23.0798 98.7944 23.6458C98.6287 23.6872 98.4769 23.7148 98.3113 23.7562C96.71 24.1151 95.302 24.3498 94.0734 24.2532C92.1271 24.1013 90.5534 22.7347 88.8417 20.7332C88.7175 20.5813 88.5933 20.4433 88.469 20.2776C87.4751 19.0629 86.4398 17.6549 85.2527 16.1502C85.0318 15.8742 84.811 15.5981 84.5901 15.322C84.1484 14.7698 83.679 14.2039 83.1821 13.6379C83.0993 13.5551 83.0302 13.4585 82.9474 13.3756C82.7818 13.1824 82.6161 13.0029 82.4367 12.8097C82.3677 12.7268 82.2848 12.644 82.202 12.5612C81.636 11.9538 81.0563 11.3464 80.4213 10.7391C77.7157 8.13012 74.3199 5.61779 69.8336 3.69904C67.9425 2.8846 65.8443 2.1806 63.5252 1.61464C61.0405 1.00726 58.3073 0.537928 55.4913 0.275652C54.8149 0.206632 54.1385 0.151417 53.4483 0.110005C52.7167 0.0685927 51.9851 0.0271807 51.2397 0.0133767C50.7979 -0.000427246 50.3562 -0.000427246 49.9145 -0.000427246C48.824 -0.000427246 47.7197 0.0271807 46.6291 0.0962006C46.2426 0.123809 45.8561 0.151417 45.4696 0.179025C40.7625 0.565536 36.2209 1.58703 32.3834 3.43676C29.6917 4.73434 19.5733 10.5182 16.6055 20.3052C15.6668 23.3973 15.4459 26.8759 16.3846 30.7548C19.739 44.4484 14.6315 46.1463 8.25406 52.6756C-0.235382 61.3721 -2.98238 73.1193 3.8506 79.1516Z" fill="#DDE5E9"/>
<g clip-path="url(#clip1_1922_38653)">
<path d="M106.563 49.3753C106.563 49.3753 107.379 49.3189 108.223 49.9392C108.701 50.2776 108.841 51.0953 108.898 51.4619C109.038 52.8717 108.898 54.0842 108.11 55.2403L105.185 60.5696L105.354 62.4306L97.4506 62.8535L97.5068 58.3138C97.5068 58.3138 97.085 56.7912 96.8881 56.2272C96.6912 55.6351 96.6631 53.8868 96.6631 53.8868C96.6631 53.8868 97.3662 49.6855 97.1131 47.7399C96.86 45.8224 97.76 40.4932 98.1537 38.9705C98.5475 37.4479 99.9538 38.322 100.094 39.5909C100.235 40.8597 99.6444 43.6795 100.094 46.048C100.094 46.048 100.291 46.8375 100.713 46.3018C100.938 45.9916 102.344 45.5123 103.329 46.5838C103.526 46.8093 103.666 47.0913 103.751 47.3733C103.835 47.6553 104.004 48.0218 104.201 47.9936C104.538 47.9372 104.848 47.7963 105.466 48.0218C106.113 48.2474 106.563 49.3753 106.563 49.3753Z" fill="#FFBF9D"/>
<path d="M103.722 48.3863C103.806 50.1909 103.862 51.9956 103.947 53.8002C103.975 54.3359 103.975 54.8999 103.75 55.4074C103.525 55.915 102.906 56.2815 102.372 56.1123C102.034 55.9996 101.781 55.6894 101.64 55.3792C101.528 55.0409 101.5 54.7025 101.5 54.3359C101.415 52.0238 101.219 49.7398 100.909 47.4558" fill="#FFBF9D"/>
<path d="M100.91 47.456C100.91 47.456 100.91 47.5124 100.91 47.6252C100.91 47.7662 100.938 47.9353 100.966 48.1327C101.023 48.6121 101.079 49.2324 101.163 50.0219C101.22 50.8115 101.304 51.7702 101.36 52.8417C101.388 53.3774 101.416 53.9413 101.416 54.5053C101.416 54.7873 101.445 55.0974 101.557 55.4076C101.67 55.6896 101.866 55.9715 102.176 56.1407C102.485 56.2817 102.851 56.2535 103.132 56.1125C103.413 55.9715 103.638 55.746 103.779 55.464C104.06 54.9 104.032 54.3079 104.004 53.8004C103.948 52.7571 103.92 51.7984 103.863 50.9806C103.807 50.1911 103.779 49.5426 103.751 49.0914C103.723 48.8941 103.723 48.7249 103.723 48.5839C103.723 48.4711 103.695 48.4147 103.695 48.4147C103.695 48.4147 103.695 48.4711 103.695 48.5839C103.695 48.7249 103.695 48.8941 103.695 49.0914C103.695 49.5708 103.723 50.2193 103.751 50.9806C103.779 51.7984 103.807 52.7571 103.835 53.8004C103.863 54.3361 103.863 54.9 103.61 55.3794C103.47 55.605 103.273 55.8306 103.02 55.9433C102.767 56.0561 102.457 56.0843 102.232 55.9715C101.979 55.8588 101.81 55.605 101.698 55.3512C101.613 55.0974 101.585 54.7873 101.557 54.5053C101.529 53.9413 101.501 53.3774 101.473 52.8417C101.416 51.7702 101.332 50.8115 101.248 50.0219C101.163 49.2324 101.079 48.5839 101.023 48.1327C100.995 47.9071 100.966 47.738 100.938 47.6252C100.938 47.5124 100.91 47.456 100.91 47.456Z" fill="#FF9A6C"/>
<path d="M97.7879 53.2382C98.3786 53.0408 99.3911 52.3641 99.9817 52.0539C100.432 51.8283 100.966 51.6591 101.388 51.9411C101.754 52.1667 101.894 52.6178 101.866 53.0408C101.838 53.5765 101.613 54.0841 101.304 54.507C101.191 54.6762 101.051 54.8454 100.91 54.9582C100.741 55.0992 100.572 55.1838 100.404 55.2684C100.347 55.2966 100.291 55.3248 100.263 55.3812C100.179 55.4939 100.179 55.6913 100.15 55.8323C100.038 56.2271 99.8411 56.5936 99.588 56.8756C99.5317 56.932 99.4473 57.0166 99.3911 57.073" fill="#FFBF9D"/>
<path d="M99.3631 57.1292C99.3631 57.1292 99.3912 57.101 99.4474 57.0728C99.5037 57.0164 99.5881 56.96 99.6724 56.8754C99.8412 56.678 100.066 56.3678 100.207 55.9167C100.235 55.8039 100.235 55.6629 100.263 55.5783C100.291 55.5219 100.291 55.4937 100.347 55.4655C100.376 55.4373 100.46 55.4091 100.516 55.3809C100.769 55.2682 101.022 55.0708 101.219 54.8452C101.613 54.3658 101.979 53.7455 101.951 52.9842C101.951 52.6176 101.81 52.2511 101.529 51.9973C101.247 51.7717 100.854 51.7435 100.544 51.8281C100.235 51.9127 99.9818 52.0537 99.7287 52.1665C99.5037 52.3075 99.2787 52.4202 99.0818 52.5612C98.6881 52.7868 98.3787 52.9842 98.1537 53.097C97.9287 53.2098 97.788 53.2662 97.788 53.2944C97.788 53.2944 97.9287 53.2662 98.1818 53.1534C98.4068 53.0406 98.7443 52.8714 99.1381 52.6458C99.3349 52.533 99.5599 52.4202 99.785 52.2793C100.01 52.1383 100.263 52.0255 100.572 51.9691C100.854 51.9127 101.163 51.9127 101.416 52.1101C101.641 52.3075 101.782 52.6176 101.782 52.956C101.81 53.6327 101.472 54.2531 101.107 54.7042C100.91 54.9298 100.713 55.099 100.46 55.2118C100.404 55.24 100.347 55.2682 100.263 55.3246C100.207 55.3809 100.151 55.4655 100.151 55.5219C100.122 55.6629 100.122 55.7757 100.094 55.8885C99.9818 56.3396 99.785 56.6498 99.6443 56.8472C99.4474 57.0164 99.3349 57.101 99.3631 57.1292Z" fill="#FF9A6C"/>
<path d="M97.9847 48.4163C97.9565 48.4445 98.4065 49.1494 99.2222 49.7698C100.038 50.3901 100.882 50.5875 100.882 50.5593C100.91 50.5029 100.122 50.2209 99.3347 49.6288C98.519 49.0366 98.0128 48.3881 97.9847 48.4163Z" fill="#FF9A6C"/>
<path d="M103.047 56.1147C103.047 56.1147 103.019 56.1429 102.991 56.1993C102.963 56.2557 102.935 56.3685 102.878 56.5095C102.85 56.6504 102.822 56.8196 102.878 57.017C102.935 57.2144 103.16 57.3836 103.413 57.44C103.919 57.5528 104.538 57.2708 104.988 56.8196C105.466 56.3685 105.775 55.6917 106 54.9868C106.253 54.2819 106.45 53.6051 106.563 52.9848C106.675 52.3645 106.703 51.7723 106.647 51.293C106.619 50.8136 106.507 50.4189 106.422 50.1651C106.338 49.9113 106.253 49.7703 106.253 49.7703C106.225 49.7703 106.478 50.3343 106.535 51.293C106.563 51.7723 106.535 52.3363 106.394 52.9566C106.282 53.5769 106.057 54.2537 105.832 54.9304C105.578 55.6071 105.297 56.2557 104.847 56.7068C104.425 57.158 103.863 57.3836 103.413 57.3272C103.188 57.299 103.019 57.158 102.963 56.9888C102.906 56.8196 102.906 56.6504 102.935 56.5377C103.019 56.2839 103.075 56.1429 103.047 56.1147Z" fill="#FF9A6C"/>
<path d="M104.144 49.6289C104.088 49.6289 104.088 50.2492 104.032 51.0106C103.975 51.7719 103.835 52.3922 103.891 52.3922C103.947 52.3922 104.144 51.8001 104.2 51.0388C104.257 50.2492 104.172 49.6289 104.144 49.6289Z" fill="#FF9A6C"/>
<path d="M105.213 56.4522C105.213 56.4804 105.325 56.565 105.578 56.6214C105.803 56.6778 106.169 56.6778 106.535 56.5368C106.9 56.3958 107.153 56.1703 107.294 55.9729C107.435 55.7755 107.491 55.6345 107.463 55.6063C107.435 55.6063 107.35 55.7191 107.21 55.8883C107.041 56.0575 106.788 56.2549 106.478 56.3676C106.141 56.5086 105.831 56.5086 105.606 56.4804C105.353 56.4804 105.213 56.424 105.213 56.4522Z" fill="#FF9A6C"/>
<path d="M80.0966 46.246C80.0966 46.246 86.4249 48.4454 87.9718 52.0828C88.2531 52.7031 94.4969 68.7755 94.4969 68.7755L104.847 83.8328C104.847 83.8328 102.147 92.7432 93.0907 92.3484C93.0907 92.3484 90.1093 92.3484 86.6499 86.9345C83.5842 82.1692 81.6998 73.4845 81.6998 73.4845L80.0966 46.246Z" fill="white"/>
<path d="M104.876 83.8314L108.419 62.2041L95.6785 60.033L90.7284 84.1134L104.876 83.8314Z" fill="white"/>
<path d="M92.0503 79.2636C92.0503 79.2636 92.0784 79.2072 92.1066 79.0662C92.1347 78.9253 92.1909 78.7279 92.2472 78.5023C92.3597 78.0229 92.5003 77.318 92.6972 76.4439C93.0628 74.6957 93.4847 72.2989 93.9347 69.6202C94.3847 66.9415 94.8066 64.5447 95.116 62.7965C95.2848 61.9505 95.3973 61.2456 95.5098 60.7381C95.566 60.5125 95.5941 60.3151 95.6223 60.1741C95.6504 60.0331 95.6504 59.9767 95.6504 59.9767C95.6504 59.9767 95.6223 60.0331 95.5941 60.1741C95.566 60.3151 95.5098 60.5125 95.4535 60.7381C95.341 61.2174 95.2004 61.9224 95.0035 62.7965C94.6379 64.5447 94.216 66.9415 93.766 69.6202C93.316 72.2989 92.8941 74.6957 92.5847 76.4439C92.4159 77.2898 92.3034 77.9947 92.1909 78.5023C92.1347 78.7279 92.1066 78.9253 92.0784 79.0662C92.0503 79.2072 92.0222 79.2636 92.0503 79.2636Z" fill="#2C528B"/>
<g opacity="0.3">
<g opacity="0.3">
<path opacity="0.3" d="M94.019 69.3953C91.9659 72.4688 90.7283 76.078 90.4471 79.7436C90.419 80.0538 90.419 80.3922 90.5596 80.6741C90.7002 80.9561 91.094 81.1253 91.3471 80.9561C91.544 80.8433 91.6002 80.5896 91.6565 80.364C92.4159 76.7547 93.1753 73.1455 93.9347 69.5362" fill="white"/>
</g>
</g>
<path d="M82.7132 12.0721C82.7132 12.0721 85.7789 23.5765 86.0602 31.7255L86.1445 34.4325C86.1445 34.4325 79.3663 40.0719 73.6849 40.4103L68.9317 28.6802L82.7132 12.0721Z" fill="#3A3A3C"/>
<path d="M52.6191 19.1208C53.9129 13.5095 54.4191 6.96778 59.0599 3.30214C62.5193 0.595213 66.4569 -0.166111 70.8445 0.00307235C73.0102 0.0876639 75.4571 1.10276 77.3134 2.17426C79.9009 3.64051 80.9978 6.62941 82.2354 9.30815C84.7385 14.722 84.401 22.0251 82.7135 24.0553L60.1849 35.9827C55.6848 33.6423 52.8722 32.7118 52.141 26.6776C51.8878 24.1681 52.0566 21.6021 52.6191 19.1208Z" fill="#3A3A3C"/>
<path d="M59.5656 7.78762L73.7409 3.58623C78.2973 2.9095 81.5599 8.46435 82.038 13.0605C82.5724 18.1642 82.9943 24.424 82.5442 28.287C81.6161 36.013 75.7941 37.2255 75.7941 37.2255C75.7941 37.1973 75.7941 37.3383 75.8222 39.6223L75.9629 43.3161C76.0191 44.8105 75.6253 46.3332 74.7253 47.5175C72.644 50.2244 68.8189 50.591 64.3188 48.9273C61.7032 47.9686 59.9031 46.023 59.7062 43.3725L57.2312 10.6073C57.1749 9.22567 58.1593 7.985 59.5656 7.78762Z" fill="#FFBF9D"/>
<path d="M79.5635 19.6289C79.5917 20.1364 79.1979 20.6158 78.6635 20.6722C78.1291 20.7286 77.651 20.3338 77.6229 19.8263C77.5947 19.3187 77.9885 18.8394 78.5229 18.783C79.0573 18.7266 79.5073 19.1213 79.5635 19.6289Z" fill="#3A3A3C"/>
<path d="M80.8573 17.683C80.7448 17.824 79.9854 17.2883 78.9166 17.3447C77.8478 17.3729 77.1166 17.9368 76.9759 17.824C76.9197 17.7676 77.0322 17.542 77.3697 17.2601C77.6791 17.0063 78.2416 16.7525 78.9166 16.7243C79.5635 16.6961 80.1541 16.9217 80.4635 17.1473C80.801 17.4011 80.9135 17.6266 80.8573 17.683Z" fill="#3A3A3C"/>
<path d="M69.4942 19.6289C69.5223 20.1364 69.1286 20.6158 68.5942 20.6722C68.0598 20.7286 67.5817 20.3338 67.5535 19.8263C67.5254 19.3187 67.9192 18.8394 68.4535 18.783C68.9879 18.7266 69.4379 19.1213 69.4942 19.6289Z" fill="#3A3A3C"/>
<path d="M70.4505 17.8244C70.338 17.9654 69.5786 17.4297 68.5099 17.4861C67.4411 17.5143 66.7098 18.0782 66.5692 17.9654C66.513 17.909 66.6255 17.6835 66.963 17.4015C67.2723 17.1477 67.8349 16.8939 68.5099 16.8657C69.1568 16.8375 69.7193 17.0631 70.0568 17.2887C70.3943 17.5425 70.5068 17.768 70.4505 17.8244Z" fill="#3A3A3C"/>
<path d="M74.5562 24.704C74.5562 24.6476 75.2031 24.5066 76.2719 24.3374C76.5532 24.3092 76.8063 24.2246 76.8344 24.0555C76.8907 23.8581 76.7782 23.5761 76.6094 23.2659C76.3281 22.6174 76.0469 21.9407 75.7375 21.2357C74.5 18.3314 73.6 15.9629 73.7406 15.9065C73.8531 15.8501 74.95 18.1622 76.1594 21.0666C76.4688 21.7715 76.75 22.4482 77.0032 23.1249C77.1157 23.4351 77.3125 23.7735 77.1719 24.1964C77.1157 24.3938 76.9188 24.563 76.75 24.6194C76.5813 24.6758 76.4406 24.6758 76.3 24.704C75.2312 24.7322 74.5844 24.7604 74.5562 24.704Z" fill="#3A3A3C"/>
<path d="M75.7941 37.2243C76.1879 37.1961 69.6909 37.2243 65.4158 34.8839C65.4158 34.8839 68.1721 40.1568 75.8223 39.1417L75.7941 37.2243Z" fill="#FF9A6C"/>
<path d="M71.0862 27.0888C71.2184 26.9798 71.8429 27.9523 73.1135 28.128C74.3841 28.3036 75.3582 27.5122 75.4424 27.6586C75.5089 27.7178 75.3354 27.9808 74.9004 28.2976C74.4757 28.5759 73.7615 28.8591 72.9866 28.7545C72.2117 28.6498 71.645 28.2295 71.3332 27.8569C71.0561 27.4316 71.0131 27.1311 71.0862 27.0888Z" fill="#3A3A3C"/>
<path d="M70.8441 13.9333C70.7597 14.2435 69.6909 14.1871 68.4815 14.4691C67.244 14.7228 66.2877 15.174 66.0908 14.9202C66.0065 14.8074 66.1471 14.5255 66.5409 14.1871C66.9065 13.8769 67.5253 13.5385 68.2565 13.3976C68.9878 13.2566 69.6909 13.2848 70.1409 13.4258C70.6191 13.5949 70.8722 13.7923 70.8441 13.9333Z" fill="#3A3A3C"/>
<path d="M77.0036 13.1646C77.2846 13.0103 77.9771 13.4924 78.8994 13.7834C79.8174 14.1022 80.6874 14.1852 80.7864 14.4578C80.8198 14.6057 80.6177 14.8013 80.23 14.91C79.8145 15.0142 79.1857 15.0271 78.5644 14.8131C77.9155 14.5946 77.4364 14.2038 77.1751 13.8766C76.9182 13.5216 76.8792 13.2302 77.0036 13.1646Z" fill="#3A3A3C"/>
<path d="M73.5446 2.76807C73.5446 2.82446 73.5728 2.88085 73.5728 2.93725H73.5446C73.5446 2.88085 73.5446 2.82446 73.5446 2.76807Z" fill="#3A3A3C"/>
<path d="M73.8825 4.74189C73.7981 6.85668 73.3481 8.94328 72.5325 10.8889C72.195 11.6784 71.7731 12.4679 71.1262 13.0601C70.4793 13.6522 69.5793 14.0188 68.7355 13.8496C70.0293 12.1296 70.7606 10.0148 70.8168 7.87178C69.9168 10.0712 68.9886 12.2987 67.4417 14.0752C66.1761 15.5696 64.376 16.7257 62.4635 16.9513C62.0135 20.3913 60.776 23.916 61.676 27.2433C62.2385 29.3299 63.6167 31.1345 63.8698 33.2775C64.0948 35.2795 63.3073 37.3097 63.5042 39.3399L49.2445 35.3641C49.4132 20.8143 51.5226 14.0752 54.729 8.29474C54.7571 8.23835 54.7852 8.21015 54.8133 8.15376C56.1915 5.64421 59.5384 2.82449 62.2666 1.95037C65.923 0.76609 69.9168 0.568709 73.6575 1.41463L73.7138 1.6966C73.7138 1.72479 73.7138 1.78119 73.7138 1.80939L73.8825 1.72479C75.3169 0.96347 76.2732 0.117554 78.5232 2.09136C79.7608 3.16285 80.8577 4.77009 81.6452 6.43373C82.3483 7.89998 83.1077 9.50722 83.3608 11.1145C83.6983 13.2293 83.164 20.3349 82.939 22.5907C82.6296 20.6169 82.3483 14.6955 81.5608 13.1447C80.8577 11.7348 80.4358 10.0148 79.6764 8.66131C79.7326 8.6895 77.1451 4.34713 73.8825 4.74189Z" fill="#3A3A3C"/>
<path d="M57.2022 58.9338C57.2304 58.9338 57.2304 58.7082 57.1741 58.3416C57.146 57.9469 57.0616 57.4111 56.8928 56.7344C56.5553 55.3809 55.7678 53.5763 54.3334 51.9972C52.899 50.4182 51.1833 49.4595 49.8614 48.9801C49.2146 48.7546 48.652 48.6136 48.2864 48.529C47.8927 48.4444 47.6958 48.4444 47.6958 48.4444C47.6958 48.5008 48.5395 48.6136 49.8052 49.1493C51.0708 49.6569 52.7303 50.6156 54.1365 52.1664C55.5428 53.7173 56.3303 55.4655 56.7241 56.7908C57.0897 58.0878 57.146 58.9338 57.2022 58.9338Z" fill="#2C528B"/>
<path d="M60.7186 40.4644C60.7186 40.4644 69.2969 46.9497 73.4595 46.2166C76.8064 45.6244 76.2158 40.5207 76.2158 40.5207L77.8471 44.0454L81.3628 58.1158L79.8721 64.7422L71.9126 59.8076L60.7186 40.4644Z" fill="#8F90A6"/>
<path d="M44.9689 108.672C46.2908 98.7184 51.6628 86.6782 51.6628 86.6782L48.2034 77.7397L47.219 47.2585L56.8942 41.8729L59.088 38.743L70.1132 50.473L79.9291 60.0037C79.6759 59.7781 77.9321 48.2454 77.9321 48.2454L76.1883 40.3502L77.9603 43.1981C77.9603 43.1981 89.098 59.2705 89.998 68.5474C90.898 77.8243 87.4386 87.4114 87.4386 87.4114C87.4386 87.4114 88.9574 102.356 89.1543 108.644H44.9689V108.672Z" fill="white"/>
<path d="M79.5628 45.5668C79.5628 45.5668 83.6973 47.3151 85.0473 49.4298C86.3973 51.5446 87.2974 60.7369 87.2974 60.7369L80.7441 49.6554L79.5628 45.5668Z" fill="white"/>
<path d="M79.563 45.5679C79.563 45.5679 79.563 45.6807 79.563 45.9063C79.5912 46.1601 79.5912 46.4702 79.6193 46.8932C79.7037 47.7673 79.7881 49.008 79.9287 50.5588V50.587L79.9568 50.6152C80.2943 50.8126 80.6881 51.0382 81.0818 51.2638L81.0256 51.1792C80.8287 53.7451 80.6037 56.9878 80.3224 60.6816L80.4912 60.5688C77.763 59.5819 74.7817 58.5104 71.6597 57.3825C70.7035 57.0442 69.7753 56.7058 68.8472 56.3674L68.9316 56.5084C69.0722 55.5497 69.2128 54.591 69.3535 53.6605L69.3816 53.4631L69.1847 53.5195C68.0315 53.9425 66.9065 54.3372 65.8377 54.7038L65.9784 54.7602C63.3346 50.9818 61.0845 47.7673 59.4814 45.4833C58.6938 44.3554 58.047 43.4813 57.5969 42.8328C57.3719 42.5508 57.2032 42.297 57.0907 42.1279C56.9782 41.9587 56.9219 41.9023 56.8938 41.9023C56.8938 41.9023 56.9501 41.9869 57.0344 42.1561C57.1469 42.3252 57.3157 42.579 57.5126 42.861C57.9345 43.5095 58.5532 44.4118 59.3407 45.5397C60.9439 47.8519 63.1658 51.0946 65.7815 54.873L65.8377 54.9576L65.9221 54.9294C66.9909 54.5346 68.1159 54.1399 69.2972 53.7451L69.1284 53.6041C68.9878 54.5346 68.8472 55.4933 68.7066 56.452L68.6784 56.5648L68.7909 56.593C69.7191 56.9314 70.6472 57.2698 71.6035 57.6081C74.7254 58.736 77.7068 59.8075 80.4349 60.7944L80.5756 60.8508V60.6816C80.8287 56.9878 81.0256 53.7169 81.1943 51.1792V51.1228L81.1381 51.0946C80.7443 50.869 80.3787 50.6716 80.0131 50.4742L80.0412 50.5306C79.8724 48.9798 79.7599 47.7391 79.6756 46.8932C79.6193 46.4984 79.5912 46.1601 79.563 45.9345C79.563 45.6807 79.563 45.5679 79.563 45.5679Z" fill="#2C528B"/>
<path d="M87.466 100.411C87.466 100.411 87.466 100.326 87.4942 100.185C87.4942 100.016 87.4942 99.7907 87.5223 99.5087C87.5223 98.8884 87.5504 98.0142 87.5504 96.9146C87.5785 94.6588 87.6067 91.4725 87.6348 87.6377V87.6659C88.2254 85.6357 88.7317 83.3517 89.2379 80.9267C89.4911 79.7143 89.7161 78.4454 89.9411 77.1765C90.1942 75.9076 90.363 74.5542 90.3911 73.1725C90.5036 69.3659 89.8005 65.7567 88.591 62.6832C87.7754 60.3146 86.7629 58.2562 85.8347 56.4516C84.9066 54.6188 84.0066 53.0679 83.2753 51.7708C82.5159 50.4738 81.8972 49.4869 81.4753 48.8101C81.2503 48.4718 81.1096 48.218 80.969 48.0488C80.8565 47.8796 80.8003 47.795 80.7721 47.795C80.7721 47.795 80.8284 47.9078 80.9128 48.077C81.0253 48.2744 81.194 48.5282 81.3909 48.8665C81.8128 49.5715 82.4034 50.5866 83.1347 51.8836C83.8659 53.1807 84.7378 54.7598 85.6379 56.5644C86.5379 58.3972 87.5504 60.4556 88.3379 62.7959C89.5192 65.813 90.1942 69.4223 90.1098 73.2007C90.0536 74.5542 89.913 75.8794 89.6598 77.1483C89.4348 78.4454 89.2098 79.6861 88.9567 80.8985C88.4504 83.3235 87.9442 85.6075 87.3816 87.6377V87.6659V87.6941C87.3816 91.5289 87.3816 94.7152 87.3816 96.9709C87.3816 98.0706 87.3816 98.9448 87.4098 99.5651C87.4098 99.8471 87.4098 100.073 87.4098 100.242C87.466 100.355 87.466 100.411 87.466 100.411Z" fill="#2C528B"/>
<g opacity="0.2">
<g opacity="0.2">
<g opacity="0.2">
<path opacity="0.2" d="M48.5965 80.1376C53.9966 76.2745 57.2311 69.5072 57.3154 62.8527L48.5965 80.1376Z" fill="white"/>
</g>
</g>
</g>
<path d="M51.0146 45.5411C51.0146 45.5411 46.402 46.4434 44.5738 50.4193C42.7457 54.3951 32.1142 82.5077 31.5236 84.5379C30.6798 87.4422 32.0579 91.6154 33.7173 93.8711C36.0236 97.0574 44.9957 108.703 44.9957 108.703H61.7305L46.5145 84.7353L57.2866 62.4595C57.2585 62.4313 56.471 47.1484 51.0146 45.5411Z" fill="white"/>
<path d="M57.2017 58.9348C57.2299 58.9348 57.2299 58.7092 57.1736 58.3426C57.1455 57.9479 57.0611 57.4121 56.8924 56.7354C56.5549 55.3819 55.7673 53.5773 54.3329 51.9983C52.8985 50.4192 51.1829 49.4605 49.861 48.9812C49.2141 48.7556 48.6516 48.6146 48.2859 48.53C47.8922 48.4454 47.6953 48.4454 47.6953 48.4454C47.6953 48.5018 48.5391 48.6146 49.8047 49.1504C51.0704 49.6579 52.7298 50.6166 54.1361 52.1675C55.5423 53.7183 56.3298 55.4665 56.7236 56.7918C57.0892 58.0889 57.1455 58.9348 57.2017 58.9348Z" fill="#2C528B"/>
<g opacity="0.2">
<g opacity="0.2">
<path opacity="0.2" d="M65.8928 54.8164L68.621 54.7036L68.0585 57.4952L80.4619 60.6532L68.8179 56.4519L69.2398 53.6039L65.8928 54.8164Z" fill="white"/>
</g>
</g>
<path d="M59.284 53.0929L59.959 52.8109C59.9309 52.7827 58.4402 49.1735 56.9495 45.3387C56.3589 43.816 56.162 42.5472 56.3308 41.5884C56.4714 40.7425 57.2308 40.1786 58.1027 40.1786L58.5527 39.5301C57.2589 39.2481 55.8245 40.2914 55.5995 41.4757C55.4026 42.5754 55.6276 43.9852 56.2745 45.6206C57.7652 49.4555 59.2558 53.0647 59.284 53.0929Z" fill="#3E8CB9"/>
<path d="M58.1873 61.5506L59.1155 61.184C58.3561 59.2102 57.3154 55.742 57.7654 54.7551C58.0467 54.1629 58.8061 53.6554 59.7623 53.4298C60.8592 53.176 61.928 53.4016 62.6593 54.022C63.7281 54.9243 65.3312 58.1105 65.8656 59.2384L66.7656 58.8155C66.6812 58.6463 64.7687 54.4731 63.3062 53.2324C62.3218 52.4147 60.9436 52.1045 59.5373 52.4147C58.2717 52.6967 57.2592 53.4016 56.8654 54.3039C56.106 55.9958 57.8498 60.6201 58.1873 61.5506Z" fill="#3E8CB9"/>
<path d="M68.2004 76.7218C69.3536 76.7218 70.4786 76.1014 71.5474 74.8889L71.1817 74.5506C70.0005 75.904 68.7629 76.4398 67.5535 76.1296C62.6034 74.9735 58.8065 61.1569 58.7783 61.0159L58.3002 61.1569C58.469 61.7491 62.1815 75.3965 67.441 76.6372C67.6942 76.6936 67.9473 76.7218 68.2004 76.7218Z" fill="#2C528B"/>
<path d="M70.6189 75.4549C70.8158 75.6523 71.1533 75.6804 71.3783 75.5113L72.4471 74.7217C72.7846 74.4962 72.869 74.045 72.644 73.7348C72.3908 73.3683 71.8564 73.3119 71.5471 73.622L70.5908 74.6372C70.3658 74.8345 70.3658 75.2293 70.6189 75.4549Z" fill="#2C528B"/>
<path d="M66.0907 77.174C67.6095 77.174 68.7626 76.6665 69.4658 75.6514C72.5033 71.3654 66.7657 59.4662 66.5126 58.9586L66.0626 59.1842C66.1188 59.297 71.9408 71.309 69.0439 75.3694C68.2845 76.4127 66.9626 76.8356 65.1344 76.6101L65.0782 77.1176C65.4438 77.1458 65.7813 77.174 66.0907 77.174Z" fill="#2C528B"/>
<path d="M66.2012 76.8913C66.173 77.1733 65.948 77.427 65.6668 77.4552L64.3168 77.568C63.923 77.6244 63.5574 77.3424 63.5011 76.9477C63.4449 76.4965 63.8105 76.1018 64.2605 76.13L65.6387 76.2428C65.9762 76.2709 66.2012 76.5529 66.2012 76.8913Z" fill="#2C528B"/>
<path d="M86.2012 65.219C86.2012 67.362 87.945 69.1102 90.0825 69.1102C92.2201 69.1102 93.9639 67.362 93.9639 65.219C93.9639 63.076 92.2201 61.3278 90.0825 61.3278C87.945 61.2996 86.2012 63.0478 86.2012 65.219Z" fill="#2C528B"/>
<path d="M86.2012 65.219C86.2012 67.362 87.945 69.1102 90.0825 69.1102C92.2201 69.1102 93.9639 67.362 93.9639 65.219C93.9639 63.076 92.2201 61.3278 90.0825 61.3278C87.945 61.2996 86.2012 63.0478 86.2012 65.219Z" fill="#2C528B"/>
<path d="M87.2131 65.2191C87.2131 66.7982 88.5068 68.0952 90.0819 68.0952C91.6569 68.0952 92.9507 66.7982 92.9507 65.2191C92.9507 63.6401 91.6569 62.343 90.0819 62.343C88.5068 62.343 87.2131 63.6119 87.2131 65.2191Z" fill="white"/>
<path d="M88.5084 61.6948L89.1553 61.3564C88.8178 60.7079 81.1395 45.707 80.6613 45.0303C80.577 44.9175 80.4926 44.7483 80.3801 44.5509C80.1551 44.1843 79.9019 43.7332 79.6207 43.3948C78.8332 42.4361 77.9332 41.5338 76.8081 41.3364L77.455 42.3797C78.0457 42.6053 78.355 42.9719 79.0582 43.846C79.3113 44.1561 79.5644 44.5791 79.7613 44.9175C79.8738 45.1149 79.9863 45.284 80.0707 45.425C80.4363 45.989 86.2865 57.3524 88.5084 61.6948Z" fill="#3E8CB9"/>
<path d="M82.2907 108.562C82.2907 108.562 82.3188 108.392 82.347 108.054C82.3751 107.688 82.4032 107.208 82.4313 106.616C82.4876 105.347 82.5439 103.543 82.6564 101.315C82.8251 96.8316 83.0501 90.6564 83.2189 83.8327C83.3032 80.4209 83.247 77.15 83.0501 74.1893C82.8532 71.2286 82.4595 68.578 81.9532 66.3786C81.447 64.1793 80.8563 62.4592 80.4344 61.3032C80.2094 60.711 80.0125 60.2881 79.8719 59.9779C79.7313 59.6677 79.675 59.5267 79.6469 59.5267C79.6469 59.5267 79.7032 59.6959 79.8157 60.0061C79.9282 60.3445 80.0969 60.7956 80.3219 61.3596C80.7157 62.5438 81.2782 64.2639 81.7282 66.4632C82.2063 68.6344 82.572 71.285 82.7407 74.2457C82.9376 77.2064 82.9657 80.449 82.8814 83.8609C82.6845 90.6846 82.5157 96.8598 82.4032 101.343C82.347 103.571 82.3188 105.375 82.2907 106.644C82.2907 107.236 82.2907 107.716 82.2626 108.082C82.2907 108.392 82.2907 108.562 82.2907 108.562Z" fill="#2C528B"/>
<path d="M61.731 108.673C61.731 108.673 61.6466 108.504 61.4778 108.222C61.2809 107.912 61.0278 107.489 60.7184 106.953C60.0153 105.825 59.0309 104.274 57.8496 102.329C55.3464 98.4094 51.9714 93.0519 48.2025 87.1305C47.6681 86.2846 47.1338 85.4387 46.6275 84.621V84.762C49.4119 79.0943 51.887 74.047 53.6589 70.4096C54.5308 68.605 55.2339 67.1669 55.7121 66.1236C55.9371 65.6442 56.134 65.2495 56.2465 64.9675C56.359 64.7137 56.4152 64.5728 56.4152 64.5446C56.4152 64.5446 56.3308 64.6855 56.1902 64.9393C56.0496 65.2213 55.8527 65.5879 55.5996 66.0672C55.0933 67.0823 54.362 68.5204 53.462 70.2968C51.662 73.9342 49.1588 78.9533 46.3181 84.621L46.29 84.7056L46.3462 84.7901C46.8525 85.5797 47.3869 86.4256 47.9213 87.2997C51.6901 93.1929 55.1214 98.5504 57.5965 102.442C58.834 104.359 59.8465 105.91 60.5497 107.01C60.8872 107.517 61.1684 107.94 61.3653 108.25C61.6185 108.532 61.7028 108.673 61.731 108.673Z" fill="#2C528B"/>
<path d="M95.6224 60.0339C95.6224 60.0339 95.7068 60.0621 95.8474 60.0903C96.0161 60.1185 96.2411 60.1749 96.5224 60.2313C97.1412 60.344 98.0131 60.5132 99.11 60.7106C101.36 61.1054 104.538 61.6693 108.391 62.346L108.279 62.2051C107.548 66.7166 106.676 72.1023 105.719 77.9109C105.382 80.0539 105.044 82.1405 104.735 84.1143V84.0861C103.469 87.0186 101.473 89.4436 99.1662 90.8534C98.0412 91.5866 96.8037 91.9531 95.6224 92.1505C95.3411 92.1787 95.0317 92.2351 94.7505 92.2633C94.4692 92.2915 94.188 92.2633 93.9067 92.2633C93.6255 92.2633 93.3723 92.2633 93.1192 92.2351C92.8661 92.2069 92.6129 92.1223 92.3879 92.0377C90.4754 91.3892 89.3222 90.1767 88.6191 89.359C87.916 88.4849 87.6628 87.9491 87.6347 87.9773C87.6347 87.9773 87.8597 88.5413 88.5347 89.4436C89.2097 90.3177 90.391 91.5584 92.3317 92.2351C92.5848 92.3197 92.8098 92.3761 93.0911 92.4325C93.3723 92.4325 93.6255 92.4607 93.9067 92.4607C94.188 92.4607 94.4692 92.4889 94.7505 92.4607C95.0317 92.4325 95.3411 92.4043 95.6224 92.3479C96.8037 92.1505 98.0974 91.7839 99.2506 91.0226C101.613 89.5845 103.666 87.1596 104.96 84.1425V84.1143C105.269 82.1405 105.607 80.0539 105.973 77.9109C106.901 72.1023 107.773 66.7166 108.476 62.2051L108.504 62.0641L108.363 62.0359C104.538 61.3873 101.332 60.8798 99.0818 60.485C97.9849 60.3158 97.113 60.1749 96.4943 60.0903C96.213 60.0621 95.988 60.0057 95.8193 60.0057C95.7068 60.0339 95.6224 60.0057 95.6224 60.0339Z" fill="#1A2E35"/>
<path d="M44.968 108.673C44.968 108.673 44.9399 108.617 44.8836 108.561C44.8274 108.476 44.743 108.363 44.6305 108.194C44.4055 107.856 44.068 107.404 43.6461 106.841C42.7461 105.656 41.4804 103.936 39.9054 101.793C38.3022 99.6503 36.3616 97.0561 34.1959 94.1518C33.9146 93.7852 33.6334 93.4187 33.3521 93.0521C33.0709 92.6856 32.8177 92.2908 32.5927 91.8678C32.1427 91.0501 31.7771 90.1196 31.5521 89.1609C31.1302 87.2435 31.3271 85.0441 32.199 83.0985V83.0703C33.2959 80.1378 34.449 76.9797 35.6584 73.7652C37.5991 68.577 39.4835 63.6424 41.2835 59.1873C42.1836 56.9597 43.0555 54.8449 43.8992 52.8993C44.3492 51.9406 44.743 50.9819 45.2211 50.1078C45.643 49.2055 46.1493 48.4442 46.9087 47.9084C48.3431 46.8369 49.7775 45.991 50.9869 45.2579C52.2244 44.5247 53.2932 43.9044 54.1932 43.4251C55.0651 42.9457 55.7401 42.5509 56.2182 42.2972C56.4433 42.1844 56.612 42.0716 56.7526 41.987C56.8651 41.9306 56.9214 41.8742 56.9214 41.8742C56.9214 41.8742 56.8651 41.9024 56.7245 41.9588C56.5839 42.0152 56.4151 42.128 56.1901 42.2408C55.712 42.4945 55.0088 42.8329 54.137 43.3405C53.2369 43.8198 52.1682 44.412 50.9025 45.1451C49.665 45.8782 48.2306 46.6959 46.768 47.7674C46.0086 48.275 45.418 49.1491 44.9961 50.0232C44.518 50.8973 44.1242 51.856 43.6461 52.8147C42.7742 54.7603 41.9023 56.8751 41.0023 59.1027C39.2023 63.5579 37.3178 68.4924 35.349 73.6806C34.1396 76.9233 32.9865 80.0532 31.9177 83.0139V82.9857C31.0177 85.0159 30.8208 87.2435 31.2708 89.2455C31.4958 90.2324 31.8615 91.1911 32.3396 92.037C32.5927 92.46 32.8459 92.8547 33.1271 93.2213C33.4084 93.5879 33.6896 93.9544 33.9709 94.321C36.1647 97.2253 38.1054 99.7912 39.7366 101.934C41.3679 104.049 42.6617 105.741 43.5617 106.925C44.0117 107.489 44.3492 107.94 44.6024 108.25C44.7149 108.391 44.7992 108.504 44.8836 108.589C44.9399 108.645 44.968 108.673 44.968 108.673Z" fill="#1A2E35"/>
</g>
</g>
<defs>
<clipPath id="clip0_1922_38653">
<rect width="140" height="79.2763" fill="white" transform="matrix(-1 0 0 1 140 0)"/>
</clipPath>
<clipPath id="clip1_1922_38653">
<rect width="77.908" height="108.954" fill="white" transform="matrix(-1 0 0 1 108.954 0)"/>
</clipPath>
</defs>
</svg>
