<svg width="187" height="142" viewBox="0 0 187 142" fill="none" xmlns="http://www.w3.org/2000/svg">
<path d="M92.6333 141.341C123.27 141.341 148.106 116.505 148.106 85.8683C148.106 55.2316 123.27 30.3958 92.6333 30.3958C61.9966 30.3958 37.1606 55.2316 37.1606 85.8683C37.1606 116.505 61.9966 141.341 92.6333 141.341Z" fill="#61C7B5"/>
<path d="M122.582 68.8971L86.5252 107.399C84.0982 110.101 79.9379 110.101 77.5108 107.399L62.2558 90.8498C60.1757 88.4855 60.1757 84.7706 62.6025 82.4064C65.0295 80.3801 68.8432 80.3801 71.2702 82.744L82.018 94.5647L113.568 61.1292C115.995 58.765 119.809 58.4273 122.236 60.7916C124.662 62.8179 124.662 66.8707 122.582 68.8971Z" fill="white"/>
<ellipse cx="154.173" cy="59.9472" rx="4.33379" ry="4.22166" fill="#3E8CB9"/>
<path d="M83.2804 9.46449H75.9833V2.35614C75.9833 1.07823 74.9174 0 73.5645 0C72.2527 0 71.1458 1.0383 71.1458 2.35614V9.46449H63.8487C62.5368 9.46449 61.4299 10.5028 61.4299 11.8206C61.4299 13.1385 62.4958 14.1768 63.8487 14.1768H71.1458V21.2851C71.1458 22.563 72.2117 23.6413 73.5645 23.6413C74.8764 23.6413 75.9833 22.603 75.9833 21.2851V14.1768H83.2804C84.5923 14.1768 85.6992 13.1385 85.6992 11.8206C85.6992 10.5028 84.5923 9.46449 83.2804 9.46449Z" fill="#72CEED"/>
<path d="M176.89 38.1715H169.593V31.0632C169.593 29.7853 168.527 28.707 167.174 28.707C165.863 28.707 164.756 29.7453 164.756 31.0632V38.1715H157.459C156.147 38.1715 155.04 39.2098 155.04 40.5277C155.04 41.8455 156.106 42.8838 157.459 42.8838H164.756V49.9922C164.756 51.2701 165.822 52.3483 167.174 52.3483C168.486 52.3483 169.593 51.31 169.593 49.9922V42.8838H176.89C178.202 42.8838 179.309 41.8455 179.309 40.5277C179.309 39.2098 178.202 38.1715 176.89 38.1715Z" fill="#72CEED"/>
<path d="M165.447 114.835H160.234V109.757C160.234 108.844 159.473 108.074 158.507 108.074C157.57 108.074 156.779 108.816 156.779 109.757V114.835H151.567C150.63 114.835 149.839 115.576 149.839 116.518C149.839 117.459 150.6 118.2 151.567 118.2H156.779V123.278C156.779 124.191 157.54 124.961 158.507 124.961C159.444 124.961 160.234 124.219 160.234 123.278V118.2H165.447C166.384 118.2 167.174 117.459 167.174 116.518C167.174 115.576 166.384 114.835 165.447 114.835Z" fill="#72CEED"/>
<path d="M169.432 89.1654H165.784V85.6112C165.784 84.9722 165.251 84.4331 164.574 84.4331C163.918 84.4331 163.365 84.9523 163.365 85.6112V89.1654H159.716C159.06 89.1654 158.507 89.6845 158.507 90.3434C158.507 91.0023 159.04 91.5215 159.716 91.5215H163.365V95.0757C163.365 95.7146 163.898 96.2537 164.574 96.2537C165.23 96.2537 165.784 95.7346 165.784 95.0757V91.5215H169.432C170.088 91.5215 170.641 91.0023 170.641 90.3434C170.641 89.6845 170.088 89.1654 169.432 89.1654Z" fill="#72CEED"/>
<circle cx="182.776" cy="88.7444" r="3.46703" fill="#3E8CB9"/>
<circle cx="109.968" cy="15.9368" r="3.46703" fill="#3E8CB9"/>
<path d="M10.1097 49.9921H17.4069V42.8837C17.4069 41.6058 18.4728 40.5276 19.8256 40.5276C21.1374 40.5276 22.2443 41.5659 22.2443 42.8837V49.9921H29.5415C30.8533 49.9921 31.9602 51.0304 31.9602 52.3482C31.9602 53.6661 30.8943 54.7044 29.5415 54.7044H22.2443V61.8127C22.2443 63.0906 21.1784 64.1689 19.8256 64.1689C18.5137 64.1689 17.4069 63.1306 17.4069 61.8127V54.7044H10.1097C8.79786 54.7044 7.69099 53.6661 7.69099 52.3482C7.69099 51.0304 8.79786 49.9921 10.1097 49.9921Z" fill="#72CEED"/>
<path d="M122.27 24.3228H128.003V18.7377C128.003 17.7337 128.841 16.8865 129.904 16.8865C130.934 16.8865 131.804 17.7023 131.804 18.7377V24.3228H137.538C138.568 24.3228 139.438 25.1387 139.438 26.1741C139.438 27.2095 138.601 28.0253 137.538 28.0253H131.804V33.6105C131.804 34.6145 130.967 35.4617 129.904 35.4617C128.873 35.4617 128.003 34.6459 128.003 33.6105V28.0253H122.27C121.239 28.0253 120.369 27.2095 120.369 26.1741C120.369 25.1387 121.239 24.3228 122.27 24.3228Z" fill="#72CEED"/>
<path d="M14.6191 94.5709H19.8313V89.4935C19.8313 88.5807 20.5927 87.8105 21.559 87.8105C22.496 87.8105 23.2866 88.5522 23.2866 89.4935V94.5709H28.4989C29.4359 94.5709 30.2266 95.3125 30.2266 96.2538C30.2266 97.1952 29.4652 97.9368 28.4989 97.9368H23.2866V103.014C23.2866 103.927 22.5253 104.697 21.559 104.697C20.6219 104.697 19.8313 103.955 19.8313 103.014V97.9368H14.6191C13.682 97.9368 12.8914 97.1952 12.8914 96.2538C12.8914 95.3125 13.682 94.5709 14.6191 94.5709Z" fill="#72CEED"/>
<path d="M26.0627 118.885H29.1901V115.839C29.1901 115.291 29.6469 114.829 30.2267 114.829C30.7889 114.829 31.2633 115.274 31.2633 115.839V118.885H34.3907C34.9529 118.885 35.4272 119.33 35.4272 119.895C35.4272 120.46 34.9704 120.905 34.3907 120.905H31.2633V123.951C31.2633 124.499 30.8065 124.961 30.2267 124.961C29.6645 124.961 29.1901 124.516 29.1901 123.951V120.905H26.0627C25.5005 120.905 25.0262 120.46 25.0262 119.895C25.0262 119.33 25.5005 118.885 26.0627 118.885Z" fill="#72CEED"/>
<circle r="6.0673" transform="matrix(-1 0 0 1 36.294 30.6718)" fill="#3E8CB9"/>
<circle r="3.46703" transform="matrix(-1 0 0 1 4.22389 95.6785)" fill="#3E8CB9"/>
</svg>
