<svg width="28" height="32" viewBox="0 0 28 32" fill="none" xmlns="http://www.w3.org/2000/svg">
<path d="M14.0066 0C10.5586 0 7.75415 2.80522 7.75415 6.25325V9.49291C7.75415 12.9412 10.5586 15.7464 14.0066 15.7464C17.4549 15.7464 20.2591 12.9412 20.2591 9.49291V6.25325C20.2592 2.80522 17.4549 0 14.0066 0Z" fill="#C7C9D9"/>
<path d="M27.7963 23.8947C25.7942 20.4827 22.5939 17.9532 18.7852 16.772C18.6969 16.7446 18.6014 16.7679 18.5356 16.833C16.7638 18.5799 14.5623 19.9428 14.0119 20.272C13.4244 19.8965 10.9496 18.2834 9.4784 16.833C9.41287 16.7679 9.31662 16.7446 9.22881 16.772C5.41956 17.9535 2.21959 20.483 0.218206 23.8949C0.172382 23.973 0.172382 24.07 0.218206 24.1481C3.06029 28.9911 8.34382 31.9995 14.007 31.9995C19.6704 31.9995 24.9542 28.9911 27.7963 24.1481C27.8424 24.0698 27.8424 23.9727 27.7963 23.8947ZM22.511 25.7599C22.511 25.8978 22.3797 26.0033 22.2419 26.0033H20.5485C20.4105 26.0033 20.26 26.1218 20.26 26.2601V28.0113C20.26 28.1491 20.1863 28.2543 20.0483 28.2543H18.5274C18.3894 28.2543 18.2594 28.1491 18.2594 28.0113V26.2601C18.2589 26.1221 18.1647 26.0033 18.0267 26.0033H16.2603C16.1223 26.0033 16.0081 25.8976 16.0081 25.7599V24.252C16.0081 24.114 16.1223 24.0027 16.2603 24.0027H18.0267C18.1647 24.0027 18.2589 23.89 18.2589 23.7518V21.9985C18.2589 21.8605 18.3889 21.7517 18.5269 21.7517H20.0314C20.1691 21.7517 20.2597 21.8605 20.2597 21.9985V23.7569C20.2597 23.8952 20.3934 24.0024 20.5316 24.0024H22.2419C22.3797 24.0024 22.511 24.1192 22.511 24.2571V25.7599Z" fill="#C7C9D9"/>
</svg>
